<svg xmlns="http://www.w3.org/2000/svg" xmlns:xlink="http://www.w3.org/1999/xlink" contentStyleType="text/css" data-diagram-type="DESCRIPTION" height="582.2917px" preserveAspectRatio="none" style="width:687px;height:582px;" version="1.1" viewBox="0 0 687 582" width="687.5px" zoomAndPan="magnify"><defs/><g><!--cluster Event & Storage--><g class="cluster" data-qualified-name="Event . Storage" data-source-line="8" id="ent0002"><path d="M99.0104,16.6667 L99.0104,17.2505 L109.3077,15.5158 L119.605,17.2036 L129.9023,17.7769 L140.1997,14.685 L150.497,16.4508 L160.7943,15.482 L171.0916,15.6014 L181.3889,16.4773 L191.6862,14.7462 L201.9835,18.2046 L212.2808,14.9159 L222.5781,16.6667 L226.7448,20.8333 L226.568,20.7857 L228.5893,26.3476 L229.5848,31.633 L231.1808,37.0802 L232.5496,42.4663 L234.0365,47.8841 L234.0365,48.0494 L242.0313,48.1055 L250.026,48.4264 L258.0208,48.5055 L266.0156,48.5131 L274.0104,47.8841 L278.1771,52.0508 L278.8844,52.0508 L279.4648,62.0803 L280.1277,72.1097 L276.1738,82.1392 L280.0618,92.1687 L277.3535,102.1982 L279.6599,112.2276 L276.802,122.2571 L277.9868,132.2866 L280.2371,142.3161 L278.0417,152.3455 L278.1771,162.375 L274.0104,166.5417 L274.0104,166.8342 L263.7163,167.4823 L253.4222,167.6979 L243.1281,166.5308 L232.8339,167.3395 L222.5398,164.9516 L212.2457,167.3316 L201.9516,168.0644 L191.6575,167.7765 L181.3634,168.2445 L171.0692,165.1998 L160.7751,164.73 L150.481,164.8156 L140.1869,166.3781 L129.8928,165.9958 L119.5987,168.4345 L109.3045,166.0565 L99.0104,166.5417 L94.8438,162.375 L93.8908,162.375 L95.4778,152.2649 L92.9914,142.1548 L93.4017,132.0446 L96.6464,121.9345 L96.0539,111.8244 L96.884,101.7143 L93.9499,91.6042 L95.7304,81.494 L96.4838,71.3839 L93.5315,61.2738 L94.5775,51.1637 L95.1937,41.0536 L96.6542,30.9435 L94.8438,20.8333 L99.0104,16.6667" fill="none" style="stroke:#333333;stroke-width:2.0833;"/><path d="M94.8438,47.8841 L94.8438,48.176 L105.5509,47.3087 L116.258,48.1526 L126.9651,48.4392 L137.6723,46.8933 L148.3794,47.7762 L159.0865,47.2918 L169.7937,47.3515 L180.5008,47.7895 L191.2079,46.9239 L201.9151,48.6531 L212.6222,47.0087 L223.3293,47.6094 L234.0365,47.8841" fill="none" style="stroke:#333333;stroke-width:2.0833;"/><text fill="#333333" font-family="'Segoe Print'" font-size="12.5" font-weight="bold" lengthAdjust="spacing" textLength="115.2344" x="104.2188" y="35.5611">Event &amp; Storage</text></g><!--cluster Consumers--><g class="cluster" data-qualified-name="Consumers" data-source-line="12" id="ent0004"><path d="M29.2188,240.5 L29.2188,241.0838 L40.0238,239.3491 L50.8288,241.0369 L61.6338,241.6102 L72.4388,238.5183 L83.2438,240.2841 L94.0488,239.3153 L104.8538,239.4347 L115.6588,240.5 L119.8254,244.6667 L119.7645,244.6502 L120.6657,249.9102 L123.2371,255.6204 L123.637,260.7452 L125.482,266.2596 L127.1171,271.7174 L127.1171,272.9173 L137.4997,271.4792 L147.8822,271.907 L158.2648,271.6287 L168.6473,272.2134 L179.0299,272.3817 L189.4124,273.3444 L199.795,273.5815 L210.1775,273.6043 L220.5601,272.4247 L230.9427,273.0052 L241.3252,273.6681 L251.7078,269.7142 L262.0903,273.6022 L272.4729,270.8938 L282.8554,273.2003 L293.238,270.3424 L303.6205,271.5272 L314.0031,273.7775 L324.3856,271.5821 L334.7682,272.01 L345.1508,272.6581 L355.5333,272.8736 L365.9159,271.7066 L376.2984,272.5153 L386.681,270.1274 L397.0635,272.5074 L407.4461,273.2402 L417.8286,272.9523 L428.2112,273.4203 L438.5938,271.7174 L442.7604,275.8841 L441.4185,275.8841 L440.9488,286.5243 L441.0343,297.1645 L442.5969,307.8047 L442.2145,318.4449 L444.6532,329.0851 L442.2752,339.7253 L441.8075,350.3655 L443.3945,361.0056 L442.7604,371.6458 L438.5938,375.8125 L438.5938,373.9602 L428.097,374.3705 L417.6002,377.6151 L407.1034,377.0227 L396.6066,377.8528 L386.1098,374.9186 L375.613,376.6992 L365.1162,377.4526 L354.6194,374.5003 L344.1226,375.5462 L333.6258,376.1625 L323.129,377.6229 L312.6322,375.8009 L302.1354,377.0974 L291.6386,374.2742 L281.1418,373.9312 L270.645,377.2114 L260.1482,373.821 L249.6514,377.2263 L239.1546,376.3865 L228.6579,375.0683 L218.1611,374.8298 L207.6643,377.0868 L197.1675,374.981 L186.6707,377.4566 L176.1739,374.2771 L165.6771,377.5276 L155.1803,377.1578 L144.6835,376.493 L134.1867,375.9437 L123.6899,377.8309 L113.1931,377.5169 L102.6963,376.2827 L92.1995,376.5575 L81.7027,375.4507 L71.2059,377.8026 L60.7091,376.2427 L50.2123,376.2919 L39.7155,374.1226 L29.2188,375.8125 L25.0521,371.6458 L23.9265,371.6458 L26.5264,361.0642 L26.2459,350.4826 L24.9328,339.901 L24.1572,329.3194 L24.4439,318.7378 L23.146,308.1563 L26.2041,297.5747 L27.1064,286.9931 L26.5143,276.4115 L26.9824,265.8299 L24.6723,255.2483 L25.0521,244.6667 L29.2188,240.5" fill="none" style="stroke:#333333;stroke-width:2.0833;"/><path d="M25.0521,271.7174 L25.0521,272.0094 L35.2586,271.142 L45.4651,271.9859 L55.6716,272.2726 L65.8781,270.7266 L76.0846,271.6095 L86.2911,271.1251 L96.4976,271.1848 L106.7041,271.6228 L116.9106,270.7572 L127.1171,271.7174" fill="none" style="stroke:#333333;stroke-width:2.0833;"/><text fill="#333333" font-family="'Segoe Print'" font-size="12.5" font-weight="bold" lengthAdjust="spacing" textLength="78.1067" x="34.4271" y="259.3944">Consumers</text></g><!--cluster Failure Handling--><g class="cluster" data-qualified-name="Failure Handling" data-source-line="17" id="ent0007"><path d="M24.0104,454.9792 L24.0104,455.563 L34.4211,453.8283 L44.8319,455.5161 L55.2426,456.0894 L65.6533,452.9975 L76.0641,454.7633 L86.4748,453.7945 L96.8855,453.9139 L107.2963,454.7898 L117.707,453.0587 L128.1177,456.5171 L138.5285,453.2284 L148.9392,454.9792 L153.1059,459.1458 L152.9291,459.0982 L154.9504,464.6601 L155.9459,469.9455 L157.5419,475.3927 L158.9106,480.7788 L160.3975,486.1966 L160.3975,486.6925 L170.8971,486.8609 L181.3966,487.8235 L191.8961,488.0607 L202.3957,488.0834 L212.8952,486.9039 L223.3947,487.4844 L233.8943,488.1473 L244.3938,484.1933 L254.8933,488.0814 L265.3929,485.373 L275.8924,487.6794 L286.3919,484.8216 L296.8915,486.0063 L307.391,488.2566 L317.8905,486.0612 L328.3901,486.4891 L338.8896,487.1372 L349.3891,487.3528 L359.8887,486.1858 L370.3882,486.9944 L380.8877,484.6066 L391.3873,486.9866 L401.8868,487.7194 L412.3863,487.4314 L422.8859,487.8995 L433.3854,486.1966 L437.5521,490.3633 L436.2102,490.3633 L435.7405,500.4781 L435.826,510.5928 L437.3885,520.7076 L437.0062,530.8224 L439.4449,540.9371 L437.0669,551.0519 L437.5521,561.1667 L433.3854,565.3333 L433.3854,564.3804 L422.8886,565.9674 L412.3918,563.481 L401.895,563.8913 L391.3982,567.136 L380.9014,566.5435 L370.4046,567.3736 L359.9079,564.4395 L349.4111,566.22 L338.9143,566.9734 L328.4175,564.0211 L317.9207,565.0671 L307.4239,565.6833 L296.9271,567.1438 L286.4303,565.3217 L275.9335,566.6182 L265.4367,563.795 L254.9399,563.4521 L244.4431,566.7323 L233.9463,563.3418 L223.4495,566.7471 L212.9527,565.9073 L202.4559,564.5891 L191.9591,564.3506 L181.4623,566.6077 L170.9655,564.5019 L160.4688,566.9774 L149.972,563.7979 L139.4752,567.0484 L128.9784,566.6786 L118.4816,566.0138 L107.9848,565.4645 L97.488,567.3517 L86.9912,567.0377 L76.4944,565.8035 L65.9976,566.0783 L55.5008,564.9715 L45.004,567.3235 L34.5072,565.7635 L24.0104,565.3333 L19.8438,561.1667 L20.3231,561.1667 L18.1539,550.9646 L18.7181,540.7625 L21.318,530.5604 L21.0375,520.3583 L19.7245,510.1563 L18.9488,499.9542 L19.2356,489.7521 L17.9377,479.55 L20.9958,469.3479 L19.8438,459.1458 L24.0104,454.9792" fill="none" style="stroke:#333333;stroke-width:2.0833;"/><path d="M19.8438,486.1966 L19.8438,486.4885 L30.6556,485.6212 L41.4674,486.4651 L52.2792,486.7517 L63.0911,485.2058 L73.9029,486.0887 L84.7147,485.6043 L95.5266,485.664 L106.3384,486.102 L117.1502,485.2364 L127.9621,486.9656 L138.7739,485.3212 L149.5857,485.9219 L160.3975,486.1966" fill="none" style="stroke:#333333;stroke-width:2.0833;"/><text fill="#333333" font-family="'Segoe Print'" font-size="12.5" font-weight="bold" lengthAdjust="spacing" textLength="116.5955" x="29.2188" y="473.8736">Failure Handling</text></g><!--cluster API Layer--><g class="cluster" data-qualified-name="API Layer" data-source-line="22" id="ent0010"><path d="M466.7188,449.7708 L466.7188,450.3547 L477.4848,448.6199 L488.2508,450.3077 L499.0168,450.8811 L509.7828,447.7892 L520.5489,449.555 L531.3149,448.5861 L542.0809,449.7708 L546.2476,453.9375 L545.9047,453.8451 L547.645,459.3312 L548.5461,464.5912 L551.1175,470.3014 L551.5174,475.4262 L553.5392,480.9883 L553.5392,480.4389 L564.2071,482.1881 L574.8749,480.75 L585.5427,481.1778 L596.2106,480.8995 L606.8784,481.4842 L617.5462,481.6525 L628.2141,482.6152 L638.8819,482.8523 L649.5497,482.8751 L660.2176,481.6956 L670.8854,480.9883 L675.0521,485.1549 L676.3398,485.1549 L677.0027,495.3075 L673.0488,505.46 L676.9368,515.6125 L674.2285,525.765 L676.5349,535.9175 L673.677,546.07 L674.8618,556.2225 L675.0521,566.375 L670.8854,570.5417 L670.8854,572.6017 L660.6771,570.4063 L650.4688,570.8342 L640.2604,571.4823 L630.0521,571.6979 L619.8438,570.5308 L609.6354,571.3395 L599.4271,568.9516 L589.2188,571.3316 L579.0104,572.0644 L568.8021,571.7765 L558.5938,572.2445 L548.3854,569.1998 L538.1771,568.73 L527.9688,568.8156 L517.7604,570.3781 L507.5521,569.9958 L497.3438,572.4345 L487.1354,570.0565 L476.9271,569.5887 L466.7188,570.5417 L462.5521,566.375 L463.1862,566.375 L460.6998,556.1534 L461.1101,545.9318 L464.3547,535.7102 L463.7623,525.4886 L464.5923,515.267 L461.6582,505.0455 L463.4387,494.8239 L464.1921,484.6023 L461.2398,474.3807 L462.2858,464.1591 L462.5521,453.9375 L466.7188,449.7708" fill="none" style="stroke:#333333;stroke-width:2.0833;"/><path d="M462.5521,480.9883 L462.5521,481.2802 L472.6618,480.4128 L482.7714,481.2567 L492.8811,481.5434 L502.9908,479.9975 L513.1005,480.8803 L523.2102,480.3959 L533.3199,480.4556 L543.4295,480.8936 L553.5392,480.9883" fill="none" style="stroke:#333333;stroke-width:2.0833;"/><text fill="#333333" font-family="'Segoe Print'" font-size="12.5" font-weight="bold" lengthAdjust="spacing" textLength="67.0288" x="471.9271" y="468.6653">API Layer</text></g><!--entity DDB--><g class="entity" data-qualified-name="Event . Storage.DDB" data-source-line="9" id="ent0003"><polygon fill="none" points="115.1979,60.4167,115.1979,60.6356,125.3858,59.9851,135.5738,60.618,145.7617,60.833,155.9496,59.6735,166.1376,60.3357,176.3255,59.9724,186.5134,60.0172,196.7014,60.3457,206.8893,59.6965,217.0772,60.9934,227.2651,59.7601,237.4531,60.2107,247.641,60.8666,257.8289,60.4167,257.8175,60.3892,258.4273,60.6826,259.0032,60.8946,259.6204,61.2062,260.2177,61.4697,260.7752,61.6371,260.9631,61.7149,261.2346,62.3155,261.4813,62.9058,261.5891,63.4387,261.9002,64.0557,261.9956,64.5833,262.7271,64.5833,261.2444,74.7233,262.7024,84.8633,261.6867,95.0033,262.5517,105.1432,261.48,115.2832,261.9243,125.4232,262.7681,135.5632,261.9956,145.7031,261.98,145.6966,261.7853,146.3064,261.6161,146.9266,261.3969,147.5262,261.018,148.0596,260.7752,148.6494,260.8134,148.7415,260.1099,148.7099,259.6345,149.2288,259.0803,149.5575,258.4773,149.7683,257.8289,149.8698,257.8289,150.5084,247.641,149.3666,237.4531,149.1904,227.2651,149.2225,217.0772,149.8085,206.8893,149.6651,196.7014,150.5796,186.5134,149.6878,176.3255,149.5124,166.1376,150.1076,155.9496,149.1752,145.7617,149.329,135.5738,150.5458,125.3858,150.3236,115.1979,149.8698,115.2955,150.1054,114.5659,149.5225,114.0618,149.484,113.5086,149.327,112.7781,148.7419,112.2516,148.6494,112.2209,148.6367,112.048,148.0769,111.9726,147.5575,111.5181,146.8811,111.4237,146.3538,111.0313,145.7031,110.4544,145.7031,110.3258,135.5632,111.5558,125.4232,110.2844,115.2832,111.5614,105.1432,111.2465,95.0033,110.7522,84.8633,110.6627,74.7233,111.0313,64.5833,111.1784,64.6443,111.1793,63.9543,111.7093,63.4835,111.5862,62.7421,112.2056,62.3084,112.2516,61.6371,112.316,61.7924,112.8734,61.4716,113.4364,61.164,114.116,61.1379,114.6902,60.8576,115.1979,60.4167" style="stroke:#333333;stroke-width:1.0417;"/><text fill="#2E2E2E" font-family="'Segoe Print'" font-size="12.5" lengthAdjust="spacing" textLength="70.6299" x="126.6563" y="87.6444">DynamoDB</text><text fill="#2E2E2E" font-family="'Segoe Print'" font-size="12.5" lengthAdjust="spacing" textLength="73.9807" x="126.6563" y="102.1952">chat-events</text><text fill="#2E2E2E" font-family="'Segoe Print'" font-size="12.5" lengthAdjust="spacing" textLength="86.5173" x="126.6563" y="116.746">(idempotency</text><text fill="#2E2E2E" font-family="'Segoe Print'" font-size="12.5" lengthAdjust="spacing" textLength="3.9734" x="213.1736" y="116.746">&#160;</text><text fill="#2E2E2E" font-family="'Segoe Print'" font-size="12.5" lengthAdjust="spacing" textLength="27.2034" x="217.147" y="116.746">key)</text><text fill="#2E2E2E" font-family="'Segoe Print'" font-size="12.5" lengthAdjust="spacing" textLength="52.2339" x="126.6563" y="131.2968">SOURCE</text><text fill="#2E2E2E" font-family="'Segoe Print'" font-size="12.5" lengthAdjust="spacing" textLength="3.9734" x="178.8901" y="131.2968">&#160;</text><text fill="#2E2E2E" font-family="'Segoe Print'" font-size="12.5" lengthAdjust="spacing" textLength="17.0288" x="182.8635" y="131.2968">OF</text><text fill="#2E2E2E" font-family="'Segoe Print'" font-size="12.5" lengthAdjust="spacing" textLength="3.9734" x="199.8923" y="131.2968">&#160;</text><text fill="#2E2E2E" font-family="'Segoe Print'" font-size="12.5" lengthAdjust="spacing" textLength="42.5049" x="203.8657" y="131.2968">TRUTH</text></g><!--entity BOT--><g class="entity" data-qualified-name="Consumers.BOT" data-source-line="13" id="ent0005"><polygon fill="none" points="46.3229,284.25,46.3229,284.4689,56.5421,283.8184,66.7613,284.4513,76.9805,284.6663,87.1997,283.5069,97.4188,284.169,107.638,283.8057,117.8572,283.8505,128.0764,284.179,138.2956,283.5298,148.5148,284.8267,158.7339,283.5935,168.9531,284.044,179.1723,284.6999,189.3915,284.1606,199.6107,284.25,199.6197,284.2719,200.1957,284.4838,200.8129,284.7954,201.4102,285.0589,202.0455,285.4142,202.557,285.4704,202.7722,285.5596,203.0189,286.1499,203.1268,286.6827,203.4379,287.2998,203.7585,287.9207,203.7773,288.4167,203.0261,288.4167,204.4841,299.5115,203.4685,310.6063,204.3334,321.7012,203.2617,332.796,203.706,343.8908,203.7773,354.9857,204.0152,355.0842,203.5176,355.5685,203.323,356.1782,203.1537,356.7984,202.9346,357.398,202.557,357.932,202.5564,357.9307,202.0059,358.2682,201.3024,358.2365,200.827,358.7554,200.2728,359.0841,199.6107,359.1523,199.6107,359.6154,189.3915,359.7909,179.1723,358.6491,168.9531,358.473,158.7339,358.5051,148.5148,359.091,138.2956,358.9476,128.0764,359.8621,117.8572,358.9704,107.638,358.795,97.4188,359.3901,87.1997,358.4577,76.9805,358.6116,66.7613,359.8283,56.5421,359.6062,46.3229,359.1523,46.4205,359.388,45.6909,358.805,45.1868,358.7666,44.6336,358.6095,43.9031,358.0245,43.3766,357.932,43.3459,357.9192,43.173,357.3594,43.0976,356.84,42.6431,356.1636,42.5487,355.6364,42.1563,354.9857,41.5794,354.9857,41.4508,343.8908,42.6808,332.796,41.4094,321.7012,42.6864,310.6063,42.3715,299.5115,42.1563,288.4167,42.0703,288.3811,42.2868,287.7804,42.7916,287.2991,42.7925,286.6091,43.3224,286.1383,43.3766,285.4704,43.3032,285.2931,44.0479,285.4244,44.6195,285.1376,45.177,284.8167,45.7399,284.5092,46.3229,284.25" style="stroke:#333333;stroke-width:1.0417;"/><text fill="#2E2E2E" font-family="'Segoe Print'" font-size="12.5" lengthAdjust="spacing" textLength="50.3296" x="57.7813" y="311.4778">Lambda</text><text fill="#2E2E2E" font-family="'Segoe Print'" font-size="12.5" lengthAdjust="spacing" textLength="115.9729" x="57.7813" y="326.0286">chatbot_consumer</text><text fill="#2E2E2E" font-family="'Segoe Print'" font-size="12.5" lengthAdjust="spacing" textLength="41.333" x="57.7813" y="340.5793">EVENT</text><text fill="#2E2E2E" font-family="'Segoe Print'" font-size="12.5" lengthAdjust="spacing" textLength="3.9734" x="99.1143" y="340.5793">&#160;</text><text fill="#2E2E2E" font-family="'Segoe Print'" font-size="12.5" lengthAdjust="spacing" textLength="25.6592" x="103.0876" y="340.5793">BUS</text><text fill="#2E2E2E" font-family="'Segoe Print'" font-size="12.5" lengthAdjust="spacing" textLength="3.9734" x="128.7468" y="340.5793">&#160;</text><text fill="#2E2E2E" font-family="'Segoe Print'" font-size="12.5" lengthAdjust="spacing" textLength="55.4321" x="132.7202" y="340.5793">PUB-SUB</text></g><!--entity APP--><g class="entity" data-qualified-name="Consumers.APP" data-source-line="14" id="ent0006"><polygon fill="none" points="244.5313,284.25,244.5313,284.4689,254.9847,283.8184,265.4381,284.4513,275.8915,284.6663,286.3449,283.5069,296.7983,284.169,307.2517,283.8057,317.7051,283.8505,328.1585,284.179,338.6119,283.5298,349.0653,284.8267,359.5187,283.5935,369.9721,284.044,380.4255,284.6999,390.879,284.1606,401.3324,284.3211,411.7858,284.2167,422.2392,284.25,422.2629,284.3073,422.8602,284.5708,423.4955,284.926,424.0961,285.1975,424.6865,285.4442,425.1855,285.4704,425.2671,285.5042,425.5782,286.1212,425.8989,286.7422,425.6863,287.1423,426.3794,287.9176,426.4058,288.4167,426.097,288.4167,426.9619,299.5115,425.8902,310.6063,426.3345,321.7012,427.1783,332.796,426.3551,343.8908,426.4058,354.9857,426.4396,354.9997,426.2704,355.6199,426.0512,356.2195,425.6724,356.7529,425.5217,357.3809,425.1855,357.932,425.1094,357.7483,424.634,358.2673,424.0798,358.596,423.4768,358.8068,422.9099,359.1049,422.2392,359.1523,422.2392,358.6491,411.7858,358.473,401.3324,358.5051,390.879,359.091,380.4255,358.9476,369.9721,359.8621,359.5187,358.9704,349.0653,358.795,338.6119,359.3901,328.1585,358.4577,317.7051,358.6116,307.2517,359.8283,296.7983,359.6062,286.3449,359.9174,275.8915,358.8171,265.4381,359.4848,254.9847,359.7674,244.5313,359.1523,244.4685,359.0008,243.9293,358.8775,243.3695,358.7046,242.8501,358.6292,242.1737,358.1747,241.585,357.932,241.7334,357.9934,241.1632,357.2691,240.8796,356.6635,241.0143,356.2311,240.3787,355.4797,240.3646,354.9857,240.8948,354.9857,240.5798,343.8908,240.0855,332.796,239.9961,321.7012,240.8425,310.6063,240.0528,299.5115,240.3646,288.4167,240.5544,288.4953,240.4313,287.754,241.0508,287.3202,241.2522,286.7133,241.4195,286.0922,241.585,285.4704,241.5912,285.4855,242.2708,285.4594,242.845,285.1791,243.3752,284.7925,243.9776,284.5801,244.5313,284.25" style="stroke:#333333;stroke-width:1.0417;"/><text fill="#2E2E2E" font-family="'Segoe Print'" font-size="12.5" lengthAdjust="spacing" textLength="50.3296" x="255.9896" y="311.4778">Lambda</text><text fill="#2E2E2E" font-family="'Segoe Print'" font-size="12.5" lengthAdjust="spacing" textLength="119.0186" x="255.9896" y="326.0286">chatapp_consumer</text><text fill="#2E2E2E" font-family="'Segoe Print'" font-size="12.5" lengthAdjust="spacing" textLength="41.333" x="255.9896" y="340.5793">EVENT</text><text fill="#2E2E2E" font-family="'Segoe Print'" font-size="12.5" lengthAdjust="spacing" textLength="3.9734" x="297.3226" y="340.5793">&#160;</text><text fill="#2E2E2E" font-family="'Segoe Print'" font-size="12.5" lengthAdjust="spacing" textLength="25.6592" x="301.296" y="340.5793">BUS</text><text fill="#2E2E2E" font-family="'Segoe Print'" font-size="12.5" lengthAdjust="spacing" textLength="3.9734" x="326.9552" y="340.5793">&#160;</text><text fill="#2E2E2E" font-family="'Segoe Print'" font-size="12.5" lengthAdjust="spacing" textLength="79.8523" x="330.9285" y="340.5793">SUBSCRIBER</text></g><!--entity BOTDLQ--><g class="entity" data-qualified-name="Failure Handling.BOTDLQ" data-source-line="18" id="ent0008"><path d="M41.7708,498.7292 L41.7708,499.313 L51.9207,497.5783 L62.0706,499.2661 L72.2205,499.8394 L82.3704,496.7475 L92.5203,498.5133 L102.6702,497.5445 L112.8201,497.6639 L122.97,498.5398 L133.1199,496.8087 L143.2698,500.2671 L153.4196,496.9784 L163.5695,498.1798 L173.7194,499.929 L183.8693,498.4909 L194.0192,498.9187 L204.1691,498.7292 L204.1691,498.7292 L204.1552,498.7241 L205.1582,501.2543 L206.096,503.7606 L207.1582,506.3124 L208.1068,508.8227 L208.7264,511.2129 L209.0404,511.2293 L208.9743,513.7158 L209.2011,516.2176 L209.4417,518.7201 L208.9138,521.1825 L209.3774,523.6966 L209.3774,523.6966 L209.6911,523.713 L209.1101,526.1862 L209.3638,528.703 L208.7579,531.1749 L208.8249,533.6819 L208.7264,536.1803 L209.0489,536.2981 L207.7937,538.6693 L206.9493,541.1905 L206.1393,543.7243 L205.2616,546.2334 L204.1691,548.6641 L204.1691,548.6532 L194.0192,549.4619 L183.8693,547.074 L173.7194,549.454 L163.5695,550.1868 L153.4196,549.8989 L143.2698,550.3669 L133.1199,547.3222 L122.97,546.8524 L112.8201,546.938 L102.6702,548.5005 L92.5203,548.1182 L82.3704,550.5569 L72.2205,548.1788 L62.0706,547.7111 L51.9207,549.2981 L41.7708,548.6641 L41.7708,548.6641 L41.4808,548.5582 L40.6336,546.0849 L40.2301,543.7736 L39.2259,541.243 L38.4444,538.7937 L37.2135,536.1803 L37.0648,536.1726 L37.2309,533.6913 L37.2261,531.2011 L36.6045,528.6787 L36.6484,526.191 L36.5625,523.6966 L36.5625,523.6966 L36.6207,523.6997 L36.994,521.2156 L36.821,518.703 L37.167,516.2175 L36.8273,513.6963 L37.2135,511.2129 L36.919,511.1054 L38.344,508.7961 L38.7247,506.1056 L40.1693,503.8035 L40.9492,501.2587 L41.7708,498.7292" fill="none" style="stroke:#333333;stroke-width:1.0417;"/><path d="M204.1691,498.7292 L204.1691,498.7292 L204.2605,498.7625 L203.0775,501.1601 L202.4302,503.7533 L201.6085,506.2829 L200.213,508.6029 L199.6118,511.2129 L199.5759,511.211 L199.2844,513.6994 L199.1741,516.1971 L199.1897,518.7015 L198.7713,521.1832 L198.9608,523.6966 L198.9608,523.6966 L199.2167,523.711 L198.8322,526.5671 L199.1949,529.4652 L199.6487,532.3685 L199.5722,535.2418 L199.7746,538.1309 L199.8053,538.1383 L200.1183,539.6099 L200.5711,541.1152 L200.9564,542.6042 L201.4704,544.1244 L201.5649,545.5431 L201.8035,545.7422 L202.3272,546.3688 L202.6971,546.867 L203.2922,547.5532 L203.8979,548.2482 L204.1691,548.6641" fill="none" style="stroke:#333333;stroke-width:1.0417;"/><text fill="#2E2E2E" font-family="'Segoe Print'" font-size="12.5" lengthAdjust="spacing" textLength="26.4282" x="46.9792" y="520.7486">DLQ</text><text fill="#2E2E2E" font-family="'Segoe Print'" font-size="12.5" lengthAdjust="spacing" textLength="141.5649" x="46.9792" y="535.2994">chatbot_consumer_dlq</text></g><!--entity APPDLQ--><g class="entity" data-qualified-name="Failure Handling.APPDLQ" data-source-line="19" id="ent0009"><path d="M250.6667,498.7292 L250.6667,499.313 L261.0069,497.5783 L271.3472,499.2661 L281.6874,499.8394 L292.0276,496.7475 L302.3679,498.5133 L312.7081,497.5445 L323.0484,497.6639 L333.3886,498.5398 L343.7289,496.8087 L354.0691,500.2671 L364.4094,496.9784 L374.7496,498.1798 L385.0899,499.929 L395.4301,498.4909 L405.7704,498.9187 L416.1106,498.7292 L416.1106,498.7292 L416.0967,498.7241 L417.0997,501.2543 L418.0375,503.7606 L419.0997,506.3124 L420.0483,508.8227 L420.6679,511.2129 L420.9819,511.2293 L420.9158,513.7158 L421.1426,516.2176 L421.3832,518.7201 L420.8553,521.1825 L421.3189,523.6966 L421.3189,523.6966 L421.6326,523.713 L421.0516,526.1862 L421.3053,528.703 L420.6994,531.1749 L420.7664,533.6819 L420.6679,536.1803 L420.9904,536.2981 L419.7352,538.6693 L418.8908,541.1905 L418.0808,543.7243 L417.2031,546.2334 L416.1106,548.6641 L416.1106,548.6532 L405.7704,549.4619 L395.4301,547.074 L385.0899,549.454 L374.7496,550.1868 L364.4094,549.8989 L354.0691,550.3669 L343.7289,547.3222 L333.3886,546.8524 L323.0484,546.938 L312.7081,548.5005 L302.3679,548.1182 L292.0276,550.5569 L281.6874,548.1788 L271.3472,547.7111 L261.0069,549.2981 L250.6667,548.6641 L250.6667,548.6641 L250.3767,548.5582 L249.5294,546.0849 L249.126,543.7736 L248.1218,541.243 L247.3403,538.7937 L246.1094,536.1803 L245.9606,536.1726 L246.1267,533.6913 L246.1219,531.2011 L245.5003,528.6787 L245.5442,526.191 L245.4583,523.6966 L245.4583,523.6966 L245.5166,523.6997 L245.8899,521.2156 L245.7168,518.703 L246.0628,516.2175 L245.7231,513.6963 L246.1094,511.2129 L245.8148,511.1054 L247.2398,508.7961 L247.6205,506.1056 L249.0651,503.8035 L249.8451,501.2587 L250.6667,498.7292" fill="none" style="stroke:#333333;stroke-width:1.0417;"/><path d="M416.1106,498.7292 L416.1106,498.7292 L416.202,498.7625 L415.019,501.1601 L414.3717,503.7533 L413.55,506.2829 L412.1545,508.6029 L411.5533,511.2129 L411.5174,511.211 L411.2259,513.6994 L411.1156,516.1971 L411.1312,518.7015 L410.7128,521.1832 L410.9023,523.6966 L410.9023,523.6966 L411.1582,523.711 L410.7737,526.5671 L411.1364,529.4652 L411.5902,532.3685 L411.5137,535.2418 L411.7161,538.1309 L411.7468,538.1383 L412.0598,539.6099 L412.5126,541.1152 L412.8979,542.6042 L413.4119,544.1244 L413.5064,545.5431 L413.745,545.7422 L414.2687,546.3688 L414.6386,546.867 L415.2337,547.5532 L415.8394,548.2482 L416.1106,548.6641" fill="none" style="stroke:#333333;stroke-width:1.0417;"/><text fill="#2E2E2E" font-family="'Segoe Print'" font-size="12.5" lengthAdjust="spacing" textLength="26.4282" x="255.875" y="520.7486">DLQ</text><text fill="#2E2E2E" font-family="'Segoe Print'" font-size="12.5" lengthAdjust="spacing" textLength="144.6106" x="255.875" y="535.2994">chatapp_consumer_dlq</text></g><!--entity BACKEND--><g class="entity" data-qualified-name="API Layer.BACKEND" data-source-line="23" id="ent0011"><polygon fill="none" points="483.2708,493.5208,483.2708,493.7398,493.9618,493.0892,504.6527,493.7222,515.3437,493.9372,526.0346,492.7777,536.7256,493.4399,547.4165,493.0766,558.1074,493.1214,568.7984,493.4498,579.4893,492.8007,590.1803,494.0975,600.8712,492.8643,611.5622,493.3148,622.2531,493.9708,632.944,493.4315,643.635,493.5919,654.3259,493.5208,654.3217,493.5106,654.9389,493.8222,655.5362,494.0857,656.1715,494.441,656.7721,494.7124,657.2722,494.7412,657.4901,494.8315,657.598,495.3643,657.9091,495.9813,658.2297,496.6023,658.0172,497.0024,658.4926,497.6875,659.1994,497.6875,658.1837,508.0911,659.0486,518.4948,657.9769,528.8984,658.4212,539.3021,658.4926,549.7057,658.7305,549.8043,658.2329,550.2885,658.0382,550.8982,657.869,551.5185,657.6498,552.1181,657.2722,552.652,657.2717,552.6508,656.7211,552.9882,656.0176,552.9565,655.5422,553.4755,654.988,553.8042,654.3259,553.8724,654.3259,554.3355,643.635,554.511,632.944,553.3692,622.2531,553.193,611.5622,553.2251,600.8712,553.8111,590.1803,553.6677,579.4893,554.5822,568.7984,553.6904,558.1074,553.515,547.4165,554.1102,536.7256,553.1778,526.0346,553.3316,515.3437,554.5484,504.6527,554.3262,493.9618,554.6375,483.2708,553.8724,483.2281,553.7692,482.724,553.7307,482.1708,553.5736,481.4403,552.9886,480.9011,552.8653,480.3246,552.652,480.365,552.6687,480.2896,552.1494,479.8351,551.4729,479.7407,550.9457,479.1706,550.2214,479.1042,549.7057,478.3987,549.7057,479.6288,539.3021,478.3574,528.8984,479.6343,518.4948,479.3194,508.0911,479.1042,497.6875,479.0182,497.6519,479.2348,497.0512,479.7395,496.5699,479.7404,495.88,480.2703,495.4091,480.3246,494.7412,480.2511,494.5639,480.9959,494.6952,481.5674,494.4084,482.1249,494.0876,482.6879,493.7801,483.2708,493.5208" style="stroke:#333333;stroke-width:1.0417;"/><text fill="#2E2E2E" font-family="'Segoe Print'" font-size="12.5" lengthAdjust="spacing" textLength="32.1533" x="494.7292" y="520.7486">REST</text><text fill="#2E2E2E" font-family="'Segoe Print'" font-size="12.5" lengthAdjust="spacing" textLength="3.9734" x="526.8825" y="520.7486">&#160;</text><text fill="#2E2E2E" font-family="'Segoe Print'" font-size="12.5" lengthAdjust="spacing" textLength="53.894" x="530.8559" y="520.7486">Backend</text><text fill="#2E2E2E" font-family="'Segoe Print'" font-size="12.5" lengthAdjust="spacing" textLength="75.1465" x="494.7292" y="535.2994">(WebSocket</text><text fill="#2E2E2E" font-family="'Segoe Print'" font-size="12.5" lengthAdjust="spacing" textLength="3.9734" x="569.8757" y="535.2994">&#160;</text><text fill="#2E2E2E" font-family="'Segoe Print'" font-size="12.5" lengthAdjust="spacing" textLength="4.2114" x="573.849" y="535.2994">/</text><text fill="#2E2E2E" font-family="'Segoe Print'" font-size="12.5" lengthAdjust="spacing" textLength="3.9734" x="578.0605" y="535.2994">&#160;</text><text fill="#2E2E2E" font-family="'Segoe Print'" font-size="12.5" lengthAdjust="spacing" textLength="32.2083" x="582.0339" y="535.2994">HTTP</text><text fill="#2E2E2E" font-family="'Segoe Print'" font-size="12.5" lengthAdjust="spacing" textLength="3.9734" x="614.2421" y="535.2994">&#160;</text><text fill="#2E2E2E" font-family="'Segoe Print'" font-size="12.5" lengthAdjust="spacing" textLength="24.6521" x="618.2155" y="535.2994">API)</text></g><!--link DDB to BOT--><g class="link" data-entity-1="ent0003" data-entity-2="ent0005" data-link-type="dependency" data-source-line="27" id="lnk12"><path d="M110.7188,126.8854 L110.7584,126.9743 L108.5364,127.6478 L106.5465,128.8423 L104.4811,129.8672 L102.1671,130.3341 L100.1972,131.5734 L100.1809,131.5413 L98.0191,132.4565 L95.9393,133.5335 L93.9166,134.7229 L91.6973,135.5248 L89.7533,136.8695 L89.8821,137.091 L87.5649,137.8045 L85.6238,139.1648 L83.7286,140.6041 L81.5664,141.5841 L79.5447,142.8057 L79.5623,142.8319 L77.5733,144.1151 L75.6646,145.5176 L73.7172,146.8626 L71.8437,148.3173 L69.7292,149.4141 L69.9216,149.6579 L68.0711,151.1234 L66.0963,152.4316 L64.3033,153.97 L62.5188,155.5192 L60.4644,156.7265 L60.2357,156.4833 L58.9684,158.565 L56.9479,159.846 L55.5,161.7357 L53.4624,162.9984 L51.9082,164.7751 L51.8843,164.7542 L50.6289,166.7641 L48.8152,168.2869 L47.3309,170.0971 L45.8743,171.9314 L44.2182,173.5917 L44.3766,173.7015 L42.8835,175.514 L41.661,177.5141 L40.0007,179.2107 L38.9935,181.36 L37.5521,183.2083 L37.7836,183.3124 L36.5833,185.8661 L35.498,188.4715 L33.8786,190.8369 L32.6508,193.3782 L31.7697,196.0754 L31.4854,196.031 L31.3434,198.6331 L30.8811,201.1852 L30.8833,203.8098 L30.0923,206.3107 L29.7729,208.8851 L29.6149,208.8687 L30.1416,211.4295 L29.9931,213.92 L30.3248,216.4605 L31.1263,219.0499 L31.0911,221.5522 L31.2824,221.6162 L32.2461,224.1479 L32.615,226.4805 L33.7289,229.0625 L34.6806,231.5901 L35.2539,233.9912 L35.0614,233.8874 L36.5222,236.3952 L37.92,238.8691 L39.4416,241.4097 L40.4817,243.6907 L41.7907,246.1167 L41.9646,246.2418 L43.2707,248.3123 L44.9124,250.6242 L47.0442,253.2889 L48.2736,255.3041 L50.2311,257.8433 L50.4081,257.9988 L52.2776,260.1549 L54.0872,262.2584 L56.032,264.4807 L58.2893,266.9774 L60.1044,269.0857 L60.0071,268.987 L62.4638,271.4155 L64.2591,273.1725 L66.8064,275.693 L68.9303,277.7836 L70.9401,279.7584" fill="none" style="stroke:#333333;stroke-width:3.125;"/><polygon fill="#333333" points="75.5208,284.0104,75.5879,284.0391,74.5813,282.0674,73.968,280.2641,73.2266,278.4059,72.064,276.3675,71.4845,274.5786,71.4575,274.5776,71.3803,275.7508,71.439,276.929,71.5923,278.1108,71.4199,279.2804,71.7036,280.4671,71.7107,280.6592,70.5177,280.2922,69.3456,280.4861,68.1761,280.7484,66.9917,280.6126,65.8151,280.6862,65.8228,280.7086,67.7527,281.3405,69.7175,282.0745,71.6654,282.7593,73.6456,283.538,75.5208,284.0104" style="stroke:#333333;stroke-width:3.125;"/><text fill="#2E2E2E" font-family="'Segoe Print'" font-size="12.5" lengthAdjust="spacing" textLength="45.5017" x="43.8021" y="208.3528">Stream</text><text fill="#2E2E2E" font-family="'Segoe Print'" font-size="12.5" lengthAdjust="spacing" textLength="3.9734" x="89.3038" y="208.3528">&#160;</text><text fill="#2E2E2E" font-family="'Segoe Print'" font-size="12.5" lengthAdjust="spacing" textLength="42.2119" x="93.2772" y="208.3528">trigger</text></g><!--link BOT to DDB--><g class="link" data-entity-1="ent0005" data-entity-2="ent0003" data-link-type="dependency" data-source-line="31" id="lnk14"><path d="M133.8542,283.9271 L134.1341,284.01 L136.2155,273.9305 L139.9376,264.3371 L143.1255,254.5854 L144.5563,244.3131 L148.3158,234.7308 L150.7644,224.76 L153.7347,214.9439 L157.0676,205.2351 L159.1507,195.1562 L163.7217,185.8142 L165.0581,175.514 L168.5471,165.8515 L171.7235,156.0964" fill="none" style="stroke:#333333;stroke-width:3.125;"/><polygon fill="#333333" points="173.5,150.1042,173.5555,150.1515,172.0587,151.5716,170.8872,153.2693,169.6099,154.8767,167.984,156.1866,166.8405,157.9082,166.8276,157.8845,167.8057,157.2159,168.8486,156.6669,169.9367,156.2011,170.8693,155.4488,172.0196,155.0977,172.1886,155.1894,172.3894,156.0291,173.0835,157.1366,173.8377,158.2767,174.2418,159.2268,174.8301,160.2768,174.8536,160.2799,174.5531,158.2408,174.3595,156.2158,174.1144,154.184,173.9677,152.1651,173.5,150.1042" style="stroke:#333333;stroke-width:3.125;"/><text fill="#2E2E2E" font-family="'Segoe Print'" font-size="12.5" lengthAdjust="spacing" textLength="33.5632" x="167.7604" y="201.0611">Write</text><text fill="#2E2E2E" font-family="'Segoe Print'" font-size="12.5" lengthAdjust="spacing" textLength="3.9734" x="201.3236" y="201.0611">&#160;</text><text fill="#2E2E2E" font-family="'Segoe Print'" font-size="12.5" lengthAdjust="spacing" textLength="56.1768" x="205.297" y="201.0611">message</text><text fill="#2E2E2E" font-family="'Segoe Print'" font-size="12.5" lengthAdjust="spacing" textLength="46.6614" x="191.2864" y="215.6119">role=AI</text></g><!--link DDB to APP--><g class="link" data-entity-1="ent0003" data-entity-2="ent0006" data-link-type="dependency" data-source-line="28" id="lnk13"><path d="M245.0833,150.3854 L245.1504,150.4559 L246.5661,151.7849 L248.3751,153.527 L250.0561,155.1346 L251.3157,156.2999 L253.1585,158.0775 L253.1327,158.0525 L254.5765,159.5545 L256.1508,161.1825 L257.8157,162.8981 L259.1682,164.3118 L260.9583,166.1484 L261.1511,166.3173 L262.2097,167.6352 L263.8313,169.4462 L265.5214,171.3173 L266.8121,172.8384 L268.3128,174.5436 L268.3378,174.563 L269.649,176.2675 L271.0738,178.0602 L272.4438,179.8104 L273.9183,181.6419 L275.0521,183.2083 L275.3086,183.3836 L276.914,185.7316 L278.3539,187.9666 L280.036,190.3671 L281.7295,192.7753 L283.0632,194.9378 L282.7777,194.7647 L284.7853,197.4982 L285.8528,199.6618 L287.635,202.2587 L288.6811,204.4093 L290.3306,206.9257 L290.3027,206.9106 L291.9465,209.5158 L292.9387,211.7683 L294.3154,214.2289 L295.7243,216.7069 L296.9004,219.0589 L297.0737,219.1432 L298.0825,221.4912 L299.3874,223.9832 L300.2133,226.2422 L301.7537,228.8488 L302.819,231.2243 L303.0514,231.3264 L304.0701,233.7239 L305.2043,236.1722 L305.8025,238.3848 L306.7935,240.7701 L308.1327,243.3085 L307.8655,243.2017 L309.0583,245.6764 L309.9501,248.0308 L311.2785,250.5597 L311.8615,252.7905 L312.8876,255.1986 L312.7384,255.144 L313.8353,257.5515 L314.2947,259.7255 L315.2074,262.0655 L316.5636,264.568 L317.13,266.7812 L317.3211,266.8459 L318.2074,269.1226 L318.4994,271.1983 L319.5358,273.5258 L320.41,275.7985 L320.9063,277.9433" fill="none" style="stroke:#333333;stroke-width:3.125;"/><polygon fill="#333333" points="322.8438,283.8854,322.9163,283.8929,322.9117,281.8297,323.3326,279.8104,323.6149,277.7768,323.4415,275.6961,323.899,273.6806,323.8749,273.6684,323.233,274.6641,322.7124,275.7215,322.276,276.8217,321.5491,277.7743,321.2292,278.9337,321.3163,279.105,320.0794,278.2046,319.0969,277.8045,318.1453,277.4655,317.0133,276.7713,315.9761,276.2639,315.9937,276.2797,317.3414,277.7808,318.7692,279.354,320.1584,280.8924,321.6213,282.4972,322.8438,283.8854" style="stroke:#333333;stroke-width:3.125;"/><text fill="#2E2E2E" font-family="'Segoe Print'" font-size="12.5" lengthAdjust="spacing" textLength="45.5017" x="303.1771" y="208.3528">Stream</text><text fill="#2E2E2E" font-family="'Segoe Print'" font-size="12.5" lengthAdjust="spacing" textLength="3.9734" x="348.6788" y="208.3528">&#160;</text><text fill="#2E2E2E" font-family="'Segoe Print'" font-size="12.5" lengthAdjust="spacing" textLength="42.2119" x="352.6522" y="208.3528">trigger</text></g><!--link APP to BACKEND--><g class="link" data-entity-1="ent0006" data-entity-2="ent0011" data-link-type="dependency" data-source-line="34" id="lnk15"><path d="M414.3958,359.6354 L414.4446,359.7196 L416.861,360.9543 L419.5634,362.6826 L422.1727,364.2501 L424.4756,365.2891 L427.2026,367.0597 L427.1834,367.0293 L429.6253,368.4868 L432.1639,370.0976 L434.7697,371.8152 L437.1438,373.1652 L439.8424,375.0299 L439.9887,375.2405 L442.1192,376.4871 L444.6766,378.3483 L447.2861,380.2845 L449.5926,381.7844 L452.0584,383.5138 L452.0778,383.5388 L454.3564,385.2952 L456.7233,387.1652 L459.0476,388.9804 L461.4531,390.9002 L463.5938,392.4792 L463.7986,392.7128 L466.3946,394.9894 L468.8586,397.1154 L471.516,399.4619 L474.1824,401.8188 L476.5617,403.8481 L476.3289,403.6088 L479.2363,406.4624 L481.377,408.528 L484.1006,411.1926 L486.2239,413.2403 L488.8393,415.7937 L488.8162,415.772 L491.402,418.4918 L493.4476,420.7044 L495.812,423.2163 L498.2032,425.7533 L500.4013,428.1091 L500.5469,428.2353 L502.5641,430.6035 L504.8302,433.1875 L506.6937,435.4224 L509.1576,438.1779 L511.2224,440.5873 L511.4198,440.7469 L513.3934,443.2036 L515.4651,445.7395 L517.0815,447.9073 L519.0316,450.3449 L521.2774,453.0216 L521.0484,452.8475 L523.1085,455.4418 L524.9105,457.8399 L527.0867,460.5226 L528.624,462.7195 L530.5411,465.2051 L530.4122,465.1123 L532.3162,467.612 L533.6694,469.715 L535.4143,472.1001 L537.5425,474.7614 L538.9881,476.931 L539.1543,477.0452 L540.7893,479.3359 L541.9074,481.2711 L543.673,483.6515 L545.2975,485.9349 L546.5933,487.9923" fill="none" style="stroke:#333333;stroke-width:3.125;"/><polygon fill="#333333" points="550.0833,493.1771,550.1552,493.1897,549.5859,491.1314,549.438,489.1472,549.1528,487.1388,548.4165,485.051,548.3047,483.0732,548.2782,483.068,547.9334,484.2015,547.7221,485.361,547.6036,486.5386,547.1653,487.6538,547.1749,488.8564,547.2118,489.0451,545.9763,488.4157,544.8485,488.3371,543.7338,488.3258,542.5426,487.9234,541.3917,487.7266,541.4043,487.7467,543.1241,488.8073,544.9013,489.9593,546.6508,491.0673,548.453,492.2593,550.0833,493.1771" style="stroke:#333333;stroke-width:3.125;"/><text fill="#2E2E2E" font-family="'Segoe Print'" font-size="12.5" lengthAdjust="spacing" textLength="32.2083" x="509.542" y="410.3319">HTTP</text><text fill="#2E2E2E" font-family="'Segoe Print'" font-size="12.5" lengthAdjust="spacing" textLength="3.9734" x="541.7503" y="410.3319">&#160;</text><text fill="#2E2E2E" font-family="'Segoe Print'" font-size="12.5" lengthAdjust="spacing" textLength="32.1533" x="545.7237" y="410.3319">REST</text><text fill="#2E2E2E" font-family="'Segoe Print'" font-size="12.5" lengthAdjust="spacing" textLength="3.9734" x="577.877" y="410.3319">&#160;</text><text fill="#2E2E2E" font-family="'Segoe Print'" font-size="12.5" lengthAdjust="spacing" textLength="47.7905" x="581.8504" y="410.3319">request</text><text fill="#2E2E2E" font-family="'Segoe Print'" font-size="12.5" lengthAdjust="spacing" textLength="62.262" x="508.3854" y="424.8827">broadcast</text><text fill="#2E2E2E" font-family="'Segoe Print'" font-size="12.5" lengthAdjust="spacing" textLength="3.9734" x="570.6474" y="424.8827">&#160;</text><text fill="#2E2E2E" font-family="'Segoe Print'" font-size="12.5" lengthAdjust="spacing" textLength="56.1768" x="574.6208" y="424.8827">message</text></g><!--link BOT to BOTDLQ--><g class="link" data-entity-1="ent0005" data-entity-2="ent0008" data-link-type="dependency" data-source-line="37" id="lnk16"><path d="M122.9688,359.4063 L123.2607,359.4063 L122.3933,369.6234 L123.2372,379.8405 L123.5239,390.0577 L121.9779,400.2748 L122.8608,410.492 L122.3764,420.7091 L122.4361,430.9263 L122.8741,441.1434 L122.0085,451.3606 L123.7377,461.5777 L122.0934,471.7949 L122.6941,482.012 L122.9688,492.2292" fill="none" style="stroke:#333333;stroke-width:3.125;"/><polygon fill="#333333" points="122.9688,498.4792,123.0354,498.5088,123.6706,496.5457,124.6967,494.7564,125.5956,492.9105,126.0757,490.8786,127.1354,489.1042,127.1163,489.0851,126.1974,489.8328,125.3746,490.6767,124.6187,491.5874,123.6323,492.2678,122.9688,493.2708,123.1047,493.4068,121.9807,492.2828,121.2535,491.5556,120.5748,490.8769,119.6144,489.9164,118.8021,489.1042,118.8237,489.1138,119.6253,490.9747,120.5254,492.8793,121.378,494.7629,122.3213,496.6868,122.9688,498.4792" style="stroke:#333333;stroke-width:3.125;"/><text fill="#2E2E2E" font-family="'Segoe Print'" font-size="12.5" lengthAdjust="spacing" textLength="40.5457" x="129.2188" y="417.6236">retries</text><text fill="#2E2E2E" font-family="'Segoe Print'" font-size="12.5" lengthAdjust="spacing" textLength="3.9734" x="169.7644" y="417.6236">&#160;</text><text fill="#2E2E2E" font-family="'Segoe Print'" font-size="12.5" lengthAdjust="spacing" textLength="65.6311" x="173.7378" y="417.6236">exhausted</text></g><!--link APP to APPDLQ--><g class="link" data-entity-1="ent0006" data-entity-2="ent0009" data-link-type="dependency" data-source-line="38" id="lnk17"><path d="M333.3854,359.4063 L333.6773,359.4063 L332.81,369.6234 L333.6539,379.8405 L333.9405,390.0577 L332.3946,400.2748 L333.2775,410.492 L332.7931,420.7091 L332.8528,430.9263 L333.2908,441.1434 L332.4252,451.3606 L334.1544,461.5777 L332.51,471.7949 L333.1107,482.012 L333.3854,492.2292" fill="none" style="stroke:#333333;stroke-width:3.125;"/><polygon fill="#333333" points="333.3854,498.4792,333.4521,498.5088,334.0873,496.5457,335.1134,494.7564,336.0122,492.9105,336.4924,490.8786,337.5521,489.1042,337.533,489.0851,336.614,489.8328,335.7913,490.6767,335.0353,491.5874,334.049,492.2678,333.3854,493.2708,333.5213,493.4068,332.3973,492.2828,331.6702,491.5556,330.9915,490.8769,330.031,489.9164,329.2188,489.1042,329.2404,489.1138,330.0419,490.9747,330.9421,492.8793,331.7946,494.7629,332.7379,496.6868,333.3854,498.4792" style="stroke:#333333;stroke-width:3.125;"/><text fill="#2E2E2E" font-family="'Segoe Print'" font-size="12.5" lengthAdjust="spacing" textLength="40.5457" x="339.6354" y="417.6236">retries</text><text fill="#2E2E2E" font-family="'Segoe Print'" font-size="12.5" lengthAdjust="spacing" textLength="3.9734" x="380.1811" y="417.6236">&#160;</text><text fill="#2E2E2E" font-family="'Segoe Print'" font-size="12.5" lengthAdjust="spacing" textLength="65.6311" x="384.1545" y="417.6236">exhausted</text></g><!--SRC=[TLF1Rfj05BpxArvzQEE3rRHIBv5QoHWYMtLZ5t1zGOgUuHMGOPViBab8rN_lWpKkgLrEm9kTcJS3Rqn69O4-a8cpPYfhK-I2HYDzo4M52ak8PLb9GS84fYa85CK6HLhG0FAaiDhbYSdWu_Nru7s9pzz8Qqmfo5y8FdmQ3dM6YNpAHGe_iT0iMM5yO2YClKTMWxSG6AdunHX-ZU2l3HYxZS1IkauauWpDb5guZiHLdX1Z38cuWGCraqW4wwq_zs1z2w6_3HTZG0skwun-3zJcKkYw9ANFT5POxXEqAdjfxkCZCXBU3-yk16SRm6RhJ8Ejqp4xw_3_15XL5mduS33tbuxdTnoppUQLkrlCYreHB50at4ngJJxKLFFGNNq_TtUV50-z7GPSG0-jdD0itAA7shFD4bROa3fBnlS2Tiyu4Wa7lwDz8Fd1m7jOXE66oPOJws4s_-hTkItjEvZo1RPSe_8qvSpXgY-JsrQ4fPvqi16tn3TVsYNWvZZhJvs6xFbys0lDRIwmfmmVSwaiRylN7cqfRc2dSaDGscyq4aeMz7csV4K1dDO_7ArivyqknppTqbqeYZXjRIAnLnAJ6BNfwK-iVQKLcamFNF7V8Ep6N0IJAkALI0CzPrXhGuaLFi9iNvTWVm00]--></g></svg>