<svg xmlns="http://www.w3.org/2000/svg" xmlns:xlink="http://www.w3.org/1999/xlink" contentStyleType="text/css" data-diagram-type="DESCRIPTION" height="760.4167px" preserveAspectRatio="none" style="width:1131px;height:760px;" version="1.1" viewBox="0 0 1131 760" width="1131.25px" zoomAndPan="magnify"><defs/><g><!--cluster Client Layer--><g class="cluster" data-qualified-name="Client Layer" data-source-line="14" id="ent0003"><path d="M809.6146,178.0938 L809.6146,178.6776 L819.9447,176.9429 L830.2748,178.6307 L840.6048,179.204 L850.9349,176.1121 L861.265,177.8779 L871.5951,176.909 L881.9252,177.0285 L892.2553,177.9044 L902.5854,178.0938 L906.752,182.2604 L906.1339,182.0938 L908.7053,187.804 L909.1052,192.9288 L910.9502,198.4432 L912.9715,204.0051 L914.0437,209.3112 L914.0437,209.2318 L922.3245,209.3744 L930.6054,209.2816 L938.8862,209.4765 L947.1671,209.5326 L955.4479,209.3112 L959.6146,213.4779 L961.2415,213.4779 L961.4786,223.6304 L961.5014,233.7829 L960.3219,243.9354 L960.9023,254.0879 L961.5652,264.2404 L957.6113,274.3929 L961.4993,284.5454 L959.6146,294.6979 L955.4479,298.8646 L955.4479,298.041 L945.0313,300.3474 L934.6146,297.4895 L924.1979,298.6743 L913.7813,300.9246 L903.3646,298.7292 L892.9479,299.1571 L882.5313,299.8052 L872.1146,300.0208 L861.6979,298.8537 L851.2813,299.6624 L840.8646,297.2745 L830.4479,299.6545 L820.0313,300.3873 L809.6146,298.8646 L805.4479,294.6979 L806.6827,294.6979 L807.1508,284.4763 L804.106,274.2547 L803.6363,264.0331 L803.7218,253.8116 L805.2844,243.59 L804.902,233.3684 L807.3407,223.1468 L804.9627,212.9252 L804.495,202.7036 L806.082,192.482 L805.4479,182.2604 L809.6146,178.0938" fill="none" style="stroke:#333333;stroke-width:2.0833;"/><path d="M805.4479,209.3112 L805.4479,209.6031 L816.3075,208.7358 L827.1671,209.5797 L838.0267,209.8663 L848.8862,208.3204 L859.7458,209.2033 L870.6054,208.7188 L881.465,208.7786 L892.3245,209.2165 L903.1841,208.351 L914.0437,209.3112" fill="none" style="stroke:#333333;stroke-width:2.0833;"/><text fill="#333333" font-family="'Segoe Print'" font-size="12.5" font-weight="bold" lengthAdjust="spacing" textLength="84.6375" x="814.8229" y="196.9882">Client Layer</text></g><!--cluster API Layer--><g class="cluster" data-qualified-name="API Layer" data-source-line="18" id="ent0005"><path d="M636.6979,380.0938 L636.6979,380.6776 L647.4639,378.9429 L658.23,380.6307 L668.996,381.204 L679.762,378.1121 L690.528,379.8779 L701.294,378.909 L712.0601,380.0938 L716.2267,384.2604 L715.8839,384.168 L717.6241,389.6541 L718.5253,394.9141 L721.0967,400.6243 L721.4966,405.7492 L723.5184,411.3112 L723.5184,410.7618 L734.1324,412.5111 L744.7464,411.0729 L755.3604,411.5007 L765.9744,411.2225 L776.5885,411.8071 L787.2025,411.9755 L797.8165,412.9381 L808.4305,413.1752 L819.0445,413.198 L829.6585,412.0185 L840.2725,412.5989 L850.8866,413.2618 L861.5006,409.3079 L872.1146,411.3112 L876.2813,415.4779 L878.166,415.4779 L875.4576,426.5892 L877.7641,437.7005 L874.9062,448.8118 L876.091,459.9232 L878.3413,471.0345 L876.2813,482.1458 L872.1146,486.3125 L872.1146,486.1771 L861.8791,486.605 L851.6436,487.2531 L841.4081,487.4687 L831.1726,486.3016 L820.937,487.1103 L810.7015,484.7225 L800.466,487.1025 L790.2305,487.8353 L779.995,487.5473 L769.7595,488.0153 L759.524,484.9706 L749.2885,484.5009 L739.053,484.5864 L728.8175,486.1489 L718.582,485.7666 L708.3465,488.2053 L698.111,485.8273 L687.8755,485.3596 L677.6399,486.9466 L667.4044,484.4602 L657.1689,484.8705 L646.9334,488.1151 L636.6979,486.3125 L632.5313,482.1458 L633.7414,482.1458 L634.5715,471.2697 L631.6374,460.3935 L633.4179,449.5174 L634.1713,438.6412 L631.219,427.765 L632.265,416.8889 L632.8812,406.0127 L634.3417,395.1366 L632.5313,384.2604 L636.6979,380.0938" fill="none" style="stroke:#333333;stroke-width:2.0833;"/><path d="M632.5313,411.3112 L632.5313,411.6031 L642.6409,410.7358 L652.7506,411.5797 L662.8603,411.8663 L672.97,410.3204 L683.0797,411.2033 L693.1893,410.7188 L703.299,410.7786 L713.4087,411.2165 L723.5184,411.3112" fill="none" style="stroke:#333333;stroke-width:2.0833;"/><text fill="#333333" font-family="'Segoe Print'" font-size="12.5" font-weight="bold" lengthAdjust="spacing" textLength="67.0288" x="641.9063" y="398.9882">API Layer</text></g><!--cluster Event & Storage Layer--><g class="cluster" data-qualified-name="Event . Storage Layer" data-source-line="22" id="ent0007"><path d="M347.1146,589.3958 L347.1146,589.9797 L357.559,588.2449 L368.0034,589.9327 L378.4477,590.5061 L388.8921,587.4142 L399.3365,589.18 L409.7809,588.2111 L420.2253,588.3306 L430.6697,589.2065 L441.1141,587.4754 L451.5585,590.9337 L462.0028,587.6451 L472.4472,588.8465 L482.8916,590.5957 L493.336,589.1576 L503.7804,589.5854 L514.2248,589.3958 L518.3914,593.5625 L518.3629,593.5548 L520.0094,599.0157 L521.5219,604.4404 L523.2901,609.9341 L524.8247,615.3648 L525.6831,620.6133 L525.6831,622.5001 L535.8522,621.3206 L546.0214,621.901 L556.1905,622.5639 L566.3596,618.61 L576.5288,622.498 L586.6979,620.6133 L590.8646,624.7799 L590.041,624.7799 L592.3474,635.6607 L589.4895,646.5415 L590.6743,657.4223 L592.9246,668.3031 L590.7292,679.1839 L591.1571,690.0647 L591.8052,700.9455 L592.0208,711.8263 L590.8537,722.7071 L591.6624,733.5879 L590.8646,744.4688 L586.6979,748.6354 L586.6979,747.0454 L576.2813,749.4254 L565.8646,750.1582 L555.4479,749.8702 L545.0313,750.3383 L534.6146,747.2935 L524.1979,746.8238 L513.7813,746.9093 L503.3646,748.4719 L492.9479,748.0895 L482.5313,750.5282 L472.1146,748.1502 L461.6979,747.6825 L451.2813,749.2695 L440.8646,746.7831 L430.4479,747.1934 L420.0313,750.4381 L409.6146,749.8456 L399.1979,750.6757 L388.7813,747.7415 L378.3646,749.5221 L367.9479,750.2755 L357.5313,747.3232 L347.1146,748.6354 L342.9479,744.4688 L342.6816,744.4688 L343.2979,733.6897 L344.7584,722.9107 L342.9363,712.1317 L344.2328,701.3527 L341.4096,690.5737 L341.0666,679.7946 L344.3468,669.0156 L340.9564,658.2366 L344.3617,647.4576 L343.5219,636.6786 L342.2037,625.8996 L341.9652,615.1205 L344.2222,604.3415 L342.9479,593.5625 L347.1146,589.3958" fill="none" style="stroke:#333333;stroke-width:2.0833;"/><path d="M342.9479,620.6133 L342.9479,620.9052 L353.0999,620.0378 L363.2518,620.8817 L373.4038,621.1684 L383.5557,619.6225 L393.7077,620.5053 L403.8596,620.0209 L414.0116,620.0806 L424.1636,620.5186 L434.3155,619.653 L444.4675,621.3822 L454.6194,619.7379 L464.7714,620.3386 L474.9233,621.2132 L485.0753,620.4941 L495.2272,620.7081 L505.3792,620.5689 L515.5312,620.8612 L525.6831,620.6133" fill="none" style="stroke:#333333;stroke-width:2.0833;"/><text fill="#333333" font-family="'Segoe Print'" font-size="12.5" font-weight="bold" lengthAdjust="spacing" textLength="158.7769" x="352.3229" y="608.2903">Event &amp; Storage Layer</text></g><!--cluster Consumer Layer--><g class="cluster" data-qualified-name="Consumer Layer" data-source-line="26" id="ent0009"><path d="M129.4063,372.8229 L129.4063,373.4068 L139.6181,371.672 L149.83,373.3598 L160.0418,373.9331 L170.2537,370.8413 L180.4655,372.607 L190.6774,371.6382 L200.8893,371.7576 L211.1011,372.6336 L221.313,370.9024 L231.5248,374.3608 L241.7367,371.0721 L251.9486,372.8229 L256.1152,376.9896 L255.9384,376.9419 L257.9597,382.5038 L258.9552,387.7892 L260.5512,393.2365 L261.92,398.6225 L263.4069,404.0404 L263.4069,404.5363 L273.7932,404.7046 L284.1796,405.6673 L294.5659,405.9044 L304.9522,405.9272 L315.3386,404.7477 L325.7249,405.3281 L336.1112,405.991 L346.4976,402.0371 L356.8839,405.9251 L367.2702,403.2167 L377.6566,405.5232 L388.0429,402.6653 L398.4292,403.8501 L408.8156,406.1004 L419.2019,403.905 L429.5882,404.3329 L439.9746,404.981 L450.3609,405.1966 L460.7472,404.0295 L471.1336,404.8382 L481.5199,402.4503 L491.9063,404.0404 L496.0729,408.207 L496.8629,408.207 L497.5957,418.3595 L497.3077,428.512 L497.7758,438.6646 L494.731,448.8171 L494.2613,458.9696 L494.3468,469.1221 L495.9094,479.2746 L496.0729,489.4271 L491.9063,493.5938 L491.9063,493.0478 L481.5491,495.4866 L471.192,493.1085 L460.8348,492.6408 L450.4777,494.2278 L440.1205,491.7414 L429.7634,492.1517 L419.4063,495.3964 L409.0491,494.8039 L398.692,495.634 L388.3348,492.6999 L377.9777,494.4804 L367.6205,495.2338 L357.2634,492.2815 L346.9063,493.3275 L336.5491,493.9437 L326.192,495.4042 L315.8348,493.5821 L305.4777,494.8787 L295.1205,492.0555 L284.7634,491.7125 L274.4063,494.9927 L264.0491,491.6022 L253.692,495.0075 L243.3348,494.1677 L232.9777,492.8495 L222.6205,492.611 L212.2634,494.8681 L201.9063,492.7623 L191.5491,495.2378 L181.192,492.0583 L170.8348,495.3088 L160.4777,494.939 L150.1205,494.2742 L139.7634,493.7249 L129.4063,493.5938 L125.2396,489.4271 L127.2579,489.4271 L126.944,479.2055 L125.7097,468.9839 L125.9846,458.7623 L124.8777,448.5407 L127.2297,438.3191 L125.6698,428.0975 L125.719,417.8759 L123.5497,407.6544 L124.114,397.4328 L126.7139,387.2112 L125.2396,376.9896 L129.4063,372.8229" fill="none" style="stroke:#333333;stroke-width:2.0833;"/><path d="M125.2396,404.0404 L125.2396,404.3323 L135.8678,403.4649 L146.4961,404.3088 L157.1243,404.5955 L167.7526,403.0495 L178.3809,403.9324 L189.0091,403.448 L199.6374,403.5077 L210.2656,403.9457 L220.8939,403.0801 L231.5221,404.8093 L242.1504,403.165 L252.7786,403.7657 L263.4069,404.0404" fill="none" style="stroke:#333333;stroke-width:2.0833;"/><text fill="#333333" font-family="'Segoe Print'" font-size="12.5" font-weight="bold" lengthAdjust="spacing" textLength="114.209" x="134.6146" y="391.7174">Consumer Layer</text></g><!--entity Frontend--><g class="entity" data-qualified-name="Client Layer.Frontend" data-source-line="15" id="ent0004"><polygon fill="none" points="826.0833,221.8438,826.0833,222.0627,836.3465,221.4122,846.6096,222.0451,856.8728,222.2601,867.1359,221.1006,877.3991,221.7628,887.6623,221.3995,897.9254,221.4443,908.1886,221.7728,918.4517,221.1236,928.7149,222.4205,938.978,221.8438,938.8943,221.6416,939.541,222.0244,940.2139,222.4705,940.7344,222.5485,941.3441,222.842,941.9243,223.0641,941.9141,223.0599,942.2257,223.6771,942.4892,224.2744,942.8444,224.9097,943.1159,225.5103,943.1447,226.0104,943.8523,226.0104,943.4099,236.4141,943.6276,246.8177,943.8762,257.2214,942.3935,267.625,943.1447,278.0286,943.3624,278.1188,942.8055,278.5785,942.8278,279.2781,942.2537,279.7306,942.1464,280.3766,941.9243,280.9749,942.0228,281.2128,941.3286,281.2034,940.7598,281.4969,940.2015,281.8158,939.6226,282.0848,938.978,282.1953,938.978,282.1912,928.7149,282.4945,918.4517,281.599,908.1886,282.4915,897.9254,282.7663,887.6623,282.6584,877.3991,282.8339,867.1359,281.6921,856.8728,281.516,846.6096,281.548,836.3465,282.134,826.0833,282.1953,826.0572,282.1323,825.5846,282.1698,824.8816,281.6511,824.27,281.353,823.7566,281.2922,823.1371,280.9749,822.9231,280.8863,822.7264,280.3167,822.8571,279.8826,822.5446,279.265,822.3964,278.7155,821.9167,278.0286,821.5815,278.0286,822.2492,267.625,822.5317,257.2214,821.4246,246.8177,821.8168,236.4141,821.9167,226.0104,821.9571,226.0272,822.3698,225.5078,822.4035,224.8313,822.7973,224.3041,822.7153,223.5798,823.1371,223.0641,823.0471,222.8469,823.7932,222.9816,824.2203,222.346,824.9725,222.4952,825.5215,222.1541,826.0833,221.8438" style="stroke:#333333;stroke-width:1.0417;"/><text fill="#2E2E2E" font-family="'Segoe Print'" font-size="12.5" lengthAdjust="spacing" textLength="56.3477" x="837.5417" y="249.0715">Frontend</text><text fill="#2E2E2E" font-family="'Segoe Print'" font-size="12.5" lengthAdjust="spacing" textLength="33.7219" x="837.5417" y="263.6223">(AWS</text><text fill="#2E2E2E" font-family="'Segoe Print'" font-size="12.5" lengthAdjust="spacing" textLength="3.9734" x="871.2636" y="263.6223">&#160;</text><text fill="#2E2E2E" font-family="'Segoe Print'" font-size="12.5" lengthAdjust="spacing" textLength="52.2827" x="875.237" y="263.6223">Amplify)</text></g><!--entity Backend--><g class="entity" data-qualified-name="API Layer.Backend" data-source-line="19" id="ent0006"><polygon fill="none" points="653.5938,423.8438,653.5938,424.0627,664.2057,423.4122,674.8177,424.0451,685.4297,424.2601,696.0417,423.1006,706.6536,423.7628,717.2656,423.3995,727.8776,423.4443,738.4896,423.7728,749.1016,423.1236,759.7135,424.4205,770.3255,423.1872,780.9375,423.6377,791.5495,424.2937,802.1615,423.7544,812.7734,423.9148,823.3854,423.8105,833.9974,424.0297,844.6094,424.0928,855.2214,423.8438,855.2992,424.0316,855.8998,424.3031,856.4901,424.5498,857.023,424.6577,857.64,424.9688,858.1676,425.0641,858.3929,425.1574,858.1804,425.5576,858.8734,426.3328,858.8047,426.7925,859.3152,427.4921,859.388,428.0104,859.2161,428.0104,859.3642,435.5039,859.6455,442.9974,859.3711,450.4909,859.4246,457.9844,859.388,465.4779,859.4966,465.5229,859.2775,466.1224,858.8986,466.6559,858.7479,467.2838,858.2281,467.7588,858.1676,468.4241,858.2054,468.5154,857.6512,468.8441,857.0482,469.0549,856.4813,469.353,855.7464,469.2455,855.2214,469.6445,855.2214,468.9652,844.6094,468.9972,833.9974,469.5832,823.3854,469.4398,812.7734,470.3543,802.1615,469.4626,791.5495,469.2872,780.9375,469.8823,770.3255,468.9499,759.7135,469.1038,749.1016,470.3205,738.4896,470.0984,727.8776,470.4096,717.2656,469.3093,706.6536,469.977,696.0417,470.2596,685.4297,469.1524,674.8177,469.5447,664.2057,469.7758,653.5938,469.6445,653.6804,469.8536,653.0039,469.3991,652.4767,469.3048,651.7524,468.7346,651.1467,468.451,650.6475,468.4241,650.809,468.4911,650.1734,467.7396,650.3226,467.3133,649.9815,466.6838,649.5852,466.0315,649.4271,465.4779,649.3042,465.4779,649.5864,457.9844,649.3231,450.4909,649.6326,442.9974,649.2352,435.5039,649.4271,428.0104,649.6251,428.0925,649.8265,427.4855,649.9938,426.8645,650.1745,426.2489,650.6365,425.7499,650.6475,425.0641,650.729,425.261,651.2592,424.8744,651.8616,424.662,652.3979,424.2901,653.0997,424.3177,653.5938,423.8438" style="stroke:#333333;stroke-width:1.0417;"/><text fill="#2E2E2E" font-family="'Segoe Print'" font-size="12.5" lengthAdjust="spacing" textLength="32.1533" x="665.0521" y="451.0715">REST</text><text fill="#2E2E2E" font-family="'Segoe Print'" font-size="12.5" lengthAdjust="spacing" textLength="3.9734" x="697.2054" y="451.0715">&#160;</text><text fill="#2E2E2E" font-family="'Segoe Print'" font-size="12.5" lengthAdjust="spacing" textLength="10.4736" x="701.1788" y="451.0715">+</text><text fill="#2E2E2E" font-family="'Segoe Print'" font-size="12.5" lengthAdjust="spacing" textLength="3.9734" x="711.6524" y="451.0715">&#160;</text><text fill="#2E2E2E" font-family="'Segoe Print'" font-size="12.5" lengthAdjust="spacing" textLength="70.2698" x="715.6258" y="451.0715">WebSocket</text><text fill="#2E2E2E" font-family="'Segoe Print'" font-size="12.5" lengthAdjust="spacing" textLength="3.9734" x="785.8956" y="451.0715">&#160;</text><text fill="#2E2E2E" font-family="'Segoe Print'" font-size="12.5" lengthAdjust="spacing" textLength="53.894" x="789.869" y="451.0715">Backend</text></g><!--entity DDB--><g class="entity" data-qualified-name="Event . Storage Layer.DDB" data-source-line="23" id="ent0008"><path d="M359.3021,643.5625 L359.3021,643.5625 L359.3349,643.6541 L362.6001,642.1775 L366.0576,641.2379 L369.4524,640.1234 L372.6413,638.4339 L376.1154,637.5404 L376.1115,637.5046 L379.541,636.9738 L382.9898,636.6233 L386.4522,636.3982 L389.8681,635.741 L393.349,635.689 L393.365,635.9448 L397.2818,635.1495 L401.2455,635.1012 L405.2149,635.1439 L409.151,634.6565 L413.1046,634.4479 L413.1058,634.4795 L417.0551,634.2826 L421.01,634.2294 L424.9622,634.1069 L428.9194,634.1167 L432.8602,633.6951 L432.8671,634.0057 L436.3139,633.9322 L439.7563,633.6584 L443.2052,633.6778 L446.6544,633.7109 L450.0938,633.3086 L450.0906,632.9747 L453.4595,633.5902 L456.8178,633.1062 L460.1841,633.4581 L463.5422,632.9492 L466.9071,633.1458 L466.9071,633.1458 L466.9068,633.1141 L470.273,633.5217 L473.6322,633.1884 L476.9955,633.2922 L480.3592,633.4328 L483.7203,633.3086 L483.7247,633.5012 L487.167,633.3841 L490.6168,633.5962 L494.0546,633.2756 L497.5102,633.7495 L500.954,633.6951 L500.9636,633.9488 L504.9129,634.0514 L508.867,634.2799 L512.7988,633.9233 L516.7469,633.9956 L520.7096,634.4479 L520.6915,634.1608 L524.659,634.6689 L528.6061,634.8535 L532.5827,635.5074 L536.509,635.36 L540.4652,635.689 L540.4482,635.5311 L543.9232,636.1643 L547.3256,636.1226 L550.7797,636.5608 L554.2841,637.4688 L557.6988,637.5404 L557.7668,637.7302 L561.1761,639.0649 L564.3738,639.809 L567.8366,641.2928 L571.2416,642.6154 L574.512,643.5625 L573.1998,643.5625 L574.2458,654.7046 L574.862,665.8467 L576.3225,676.9888 L574.5004,688.131 L575.797,699.2731 L572.9738,710.4152 L574.512,721.5573 L574.512,721.5573 L574.4063,721.2621 L571.228,722.9812 L567.6748,723.6537 L564.5035,725.3924 L561.0937,726.4651 L557.6988,727.5794 L557.6855,727.4561 L554.2345,727.7869 L550.828,728.5312 L547.3438,728.5525 L543.9411,729.333 L540.4652,729.4308 L540.4491,729.1754 L536.532,729.9643 L532.577,730.151 L528.6189,730.2886 L524.662,730.4455 L520.7096,730.6719 L520.7224,731.008 L516.7692,731.1063 L512.8103,731.0513 L508.8609,731.2476 L504.9028,731.2138 L500.954,731.4246 L500.9614,731.7562 L497.5088,731.5736 L494.0623,731.6591 L490.6075,731.375 L487.1629,731.5463 L483.7203,731.8112 L483.7227,732.0569 L480.3596,732.0427 L476.9948,731.8564 L473.6309,731.7597 L470.2687,731.8401 L466.9071,731.974 L466.9071,731.974 L466.904,731.6563 L463.5463,732.1334 L460.1851,732.2512 L456.8215,732.12 L453.4596,732.1655 L450.0938,731.8112 L450.0924,731.7479 L446.648,731.7743 L443.1963,731.4772 L439.7566,731.7107 L436.3095,731.6162 L432.8602,731.4246 L432.8699,731.6802 L428.905,731.1678 L424.9556,731.0614 L421.0146,731.1781 L417.0657,731.0849 L413.1046,730.6719 L413.0897,730.4351 L409.1478,730.3341 L405.2067,730.2444 L401.2335,729.645 L397.3103,729.8423 L393.349,729.4308 L393.3617,729.5496 L389.8973,729.0142 L386.4626,728.7557 L383.0448,728.6554 L379.5466,727.8057 L376.1154,727.5794 L376.1645,727.7167 L372.7973,726.4995 L369.4081,725.221 L366.0494,724.0276 L362.6825,722.8112 L359.3021,721.5573 L357.5683,721.5573 L358.1887,710.4152 L358.02,699.2731 L359.4794,688.131 L359.5469,676.9888 L359.7514,665.8467 L358.4938,654.7046 L359.3021,643.5625" fill="none" style="stroke:#333333;stroke-width:1.0417;"/><path d="M359.3021,643.5625 L359.3021,643.5625 L359.3349,643.6541 L362.6001,644.5863 L366.0576,646.0556 L369.4524,647.35 L372.6413,648.0693 L376.1154,649.5846 L376.1115,649.5489 L379.541,649.7586 L382.9898,650.1487 L386.4522,650.6641 L389.8681,650.7475 L393.349,651.436 L393.365,651.6918 L397.2818,651.393 L401.2455,651.8411 L405.2149,652.3802 L409.151,652.3892 L413.1046,652.6771 L413.1058,652.7087 L417.0551,652.8129 L421.01,653.0608 L424.9622,653.2394 L428.9194,653.5503 L432.8602,653.4299 L432.8671,653.7404 L436.3139,653.8216 L439.7563,653.7023 L443.2052,653.8764 L446.6544,654.0641 L450.0938,653.8164 L450.0906,653.4825 L453.4595,654.1631 L456.8178,653.7442 L460.1841,654.1612 L463.5422,653.7174 L466.9071,653.9792 L466.9071,653.9792 L466.9068,653.9475 L470.273,654.2899 L473.6322,653.8915 L476.9955,653.9303 L480.3592,654.0057 L483.7203,653.8164 L483.7247,654.0091 L487.167,653.7373 L490.6168,653.7947 L494.0546,653.3195 L497.5102,653.6388 L500.954,653.4299 L500.9636,653.6835 L504.9129,653.4849 L508.867,653.4123 L512.7988,652.7547 L516.7469,652.5259 L520.7096,652.6771 L520.6915,652.39 L524.659,652.4017 L528.6061,652.0899 L532.5827,652.2473 L536.509,651.6035 L540.4652,651.436 L540.4482,651.2781 L543.9232,651.1708 L547.3256,650.3885 L550.7797,650.0862 L554.2841,650.2536 L557.6988,649.5846 L557.7668,649.7745 L561.1761,648.7003 L564.3738,647.0355 L567.8366,646.1105 L571.2416,645.0243 L574.512,643.5625" fill="none" style="stroke:#333333;stroke-width:1.0417;"/><text fill="#2E2E2E" font-family="'Segoe Print'" font-size="12.5" lengthAdjust="spacing" textLength="70.6299" x="374.9271" y="674.9569">DynamoDB</text><text fill="#2E2E2E" font-family="'Segoe Print'" font-size="12.5" lengthAdjust="spacing" textLength="61.2976" x="374.9271" y="689.5077">Messages</text><text fill="#2E2E2E" font-family="'Segoe Print'" font-size="12.5" lengthAdjust="spacing" textLength="86.731" x="374.9271" y="704.0585">(Idempotency</text><text fill="#2E2E2E" font-family="'Segoe Print'" font-size="12.5" lengthAdjust="spacing" textLength="3.9734" x="461.658" y="704.0585">&#160;</text><text fill="#2E2E2E" font-family="'Segoe Print'" font-size="12.5" lengthAdjust="spacing" textLength="10.4736" x="465.6314" y="704.0585">+</text><text fill="#2E2E2E" font-family="'Segoe Print'" font-size="12.5" lengthAdjust="spacing" textLength="3.9734" x="476.1051" y="704.0585">&#160;</text><text fill="#2E2E2E" font-family="'Segoe Print'" font-size="12.5" lengthAdjust="spacing" textLength="39.8315" x="480.0785" y="704.0585">Status</text><text fill="#2E2E2E" font-family="'Segoe Print'" font-size="12.5" lengthAdjust="spacing" textLength="3.9734" x="519.91" y="704.0585">&#160;</text><text fill="#2E2E2E" font-family="'Segoe Print'" font-size="12.5" lengthAdjust="spacing" textLength="35.0037" x="523.8834" y="704.0585">Sync)</text><text fill="#2E2E2E" font-family="'Segoe Print'" font-size="12.5" lengthAdjust="spacing" textLength="30.5908" x="374.9271" y="718.6093">ACID</text><text fill="#2E2E2E" font-family="'Segoe Print'" font-size="12.5" lengthAdjust="spacing" textLength="3.9734" x="405.5179" y="718.6093">&#160;</text><text fill="#2E2E2E" font-family="'Segoe Print'" font-size="12.5" lengthAdjust="spacing" textLength="79.8584" x="409.4913" y="718.6093">Transactions</text></g><!--entity BotLambda--><g class="entity" data-qualified-name="Consumer Layer.BotLambda" data-source-line="27" id="ent0010"><polygon fill="none" points="145.7083,416.5729,145.7083,416.7919,156.5025,416.1413,167.2966,416.7743,178.0908,416.9892,188.8849,415.8298,199.6791,416.492,210.4732,416.1287,221.2674,416.1734,232.0615,416.5019,242.8556,415.8527,253.6498,417.1496,264.4439,415.9164,275.2381,416.3669,286.0322,416.5729,286.0896,416.7115,286.6101,416.7895,287.2198,417.083,287.7957,417.2949,288.413,417.6065,288.9785,417.7933,289.0552,417.8251,289.4105,418.4604,289.6819,419.061,289.9286,419.6513,290.0365,420.1842,290.1989,420.7396,290.6818,420.7396,290.9304,431.1432,289.4477,441.5469,290.9057,451.9505,289.89,462.3542,290.1989,472.7578,290.3701,472.8287,289.796,473.2813,289.6888,473.9272,289.7046,474.6241,289.2069,475.1084,288.9785,475.7041,288.9925,475.7379,288.4342,476.0568,287.8553,476.3258,287.2102,476.4351,286.6596,476.7725,286.0322,476.9245,286.0322,476.3282,275.2381,477.2207,264.4439,477.4955,253.6498,477.3875,242.8556,477.563,232.0615,476.4213,221.2674,476.2451,210.4732,476.2772,199.6791,476.8631,188.8849,476.7198,178.0908,477.6343,167.2966,476.7425,156.5025,476.5671,145.7083,476.9245,145.7387,476.9977,145.0305,476.4665,144.4608,476.2698,144.0268,476.4004,143.4092,476.0879,142.7621,475.7041,142.9977,475.8017,142.4147,475.0721,142.3763,474.568,142.2192,474.0148,141.6342,473.2843,141.5417,472.7578,141.4418,472.7578,141.6729,462.3542,142.2206,451.9505,141.5373,441.5469,142.0235,431.1432,141.5417,420.7396,141.364,420.666,141.5685,420.0603,142.1914,419.628,142.0439,418.8766,142.6812,418.4502,142.7621,417.7933,142.7895,417.8596,143.3157,417.4633,143.8936,417.1917,144.5908,417.2082,145.0793,416.721,145.7083,416.5729" style="stroke:#333333;stroke-width:1.0417;"/><text fill="#2E2E2E" font-family="'Segoe Print'" font-size="12.5" lengthAdjust="spacing" textLength="50.3296" x="157.1667" y="443.8007">Lambda</text><text fill="#2E2E2E" font-family="'Segoe Print'" font-size="12.5" lengthAdjust="spacing" textLength="49.6948" x="157.1667" y="458.3515">Chatbot</text><text fill="#2E2E2E" font-family="'Segoe Print'" font-size="12.5" lengthAdjust="spacing" textLength="3.9734" x="206.8615" y="458.3515">&#160;</text><text fill="#2E2E2E" font-family="'Segoe Print'" font-size="12.5" lengthAdjust="spacing" textLength="63.739" x="210.8349" y="458.3515">Consumer</text></g><!--entity AppLambda--><g class="entity" data-qualified-name="Consumer Layer.AppLambda" data-source-line="28" id="ent0011"><polygon fill="none" points="331.2396,416.5729,331.2396,416.7919,341.5439,416.1413,351.8482,416.7743,362.1526,416.9892,372.4569,415.8298,382.7612,416.492,393.0656,416.1287,403.3699,416.1734,413.6742,416.5019,423.9786,415.8527,434.2829,417.1496,444.5872,415.9164,454.8916,416.3669,465.1959,417.0229,475.5002,416.5729,475.4888,416.5454,476.0986,416.8389,476.6745,417.0508,477.2917,417.3624,477.889,417.6259,478.4465,417.7933,478.6344,417.8711,478.9059,418.4717,479.1526,419.0621,479.2604,419.5949,479.5715,420.2119,479.6669,420.7396,480.3984,420.7396,478.9157,431.1432,480.3737,441.5469,479.3581,451.9505,480.223,462.3542,479.6669,472.7578,479.5081,472.692,479.4009,473.338,479.4167,474.0349,478.919,474.5191,478.7244,475.1288,478.4465,475.7041,478.4915,475.8127,477.9126,476.0817,477.2675,476.191,476.7169,476.5285,476.0134,476.4968,475.5002,476.9245,475.5002,477.2207,465.1959,477.4955,454.8916,477.3875,444.5872,477.563,434.2829,476.4213,423.9786,476.2451,413.6742,476.2772,403.3699,476.8631,393.0656,476.7198,382.7612,477.6343,372.4569,476.7425,362.1526,476.5671,351.8482,477.1623,341.5439,476.2299,331.2396,476.9245,331.1706,476.7579,330.7366,476.8886,330.119,476.5761,329.5694,476.4279,328.8398,475.8449,328.2933,475.7041,328.3957,475.7465,328.2386,475.1933,327.6536,474.4628,327.5303,473.9236,327.3574,473.3638,327.0729,472.7578,327.7518,472.7578,327.0686,462.3542,327.5548,451.9505,326.4961,441.5469,326.3674,431.1432,327.0729,420.7396,327.2345,420.8065,327.087,420.0551,327.7243,419.6287,327.8714,418.9993,327.9633,418.347,328.2933,417.7933,328.2463,417.6798,328.9435,417.6964,329.432,417.2091,330.1397,417.2509,330.5769,416.6397,331.2396,416.5729" style="stroke:#333333;stroke-width:1.0417;"/><text fill="#2E2E2E" font-family="'Segoe Print'" font-size="12.5" lengthAdjust="spacing" textLength="50.3296" x="342.6979" y="443.8007">Lambda</text><text fill="#2E2E2E" font-family="'Segoe Print'" font-size="12.5" lengthAdjust="spacing" textLength="53.6316" x="342.6979" y="458.3515">ChatApp</text><text fill="#2E2E2E" font-family="'Segoe Print'" font-size="12.5" lengthAdjust="spacing" textLength="3.9734" x="396.3295" y="458.3515">&#160;</text><text fill="#2E2E2E" font-family="'Segoe Print'" font-size="12.5" lengthAdjust="spacing" textLength="63.739" x="400.3029" y="458.3515">Consumer</text></g><!--entity Users--><g class="entity" data-qualified-name="Users" data-source-line="12" id="ent0002"><polygon fill="none" points="890.9125,27.027,889.6909,28.6961,888.2461,31.1407,886.1798,32.7882,884.0084,33.6891,882.277,33.7673,880.0518,32.6406,877.9521,31.9045,876.3585,30.41,875.5225,28.6991,875.0268,27.3368,874.5411,25.5573,873.7528,24.0261,874.3586,22.5311,874.8893,20.8934,876.881,19.5981,878.2823,17.9175,880.0167,17.3594,882.0786,16.8788,884.7228,17.1644,886.171,17.8474,887.8548,18.157,889.9022,20.2545,890.6159,22.4689,890.9259,23.9798,890.5747,26.4696" style="stroke:#333333;stroke-width:1.0417;"/><path d="M882.5331,33.3333 L882.7277,33.3333 L882.1495,38.9583 L882.712,44.5833 L882.9032,50.2083 L881.8725,55.8333 L882.5331,61.4583 M868.9914,41.6667 L868.9914,41.5947 L874.4081,41.2718 L879.8247,41.3116 L885.2414,41.6036 L890.6581,41.0265 L896.0747,41.6667 M882.5331,61.4583 L882.9205,61.7941 L879.3837,64.2011 L876.978,67.5884 L874.7103,71.0953 L871.6397,73.9063 L868.9914,77.0833 M882.5331,61.4583 L882.5808,61.4997 L885.2191,64.564 L888.0747,67.8166 L890.8254,70.9783 L893.7762,74.3135 L896.0747,77.0833" fill="none" style="stroke:#333333;stroke-width:1.0417;"/><text fill="#2E2E2E" font-family="'Segoe Print'" font-size="12.5" lengthAdjust="spacing" textLength="35.0037" x="865.0313" y="95.9778">Users</text></g><!--entity OpenAI--><g class="entity" data-qualified-name="OpenAI" data-source-line="31" id="ent0012"><path d="M181.3499,233.3388 L181.3499,233.3388 L181.3747,233.4329 L183.9307,232.4604 L186.632,232.0396 L189.2859,231.4391 L191.7842,230.2479 L194.498,229.8744 L194.498,229.8744 L194.4933,229.8387 L196.6929,229.3902 L198.9158,229.1216 L201.155,228.9781 L203.3382,228.4036 L205.5998,228.4327 L205.5998,228.4327 L205.6632,228.6811 L207.7625,227.5794 L210.047,227.2028 L212.354,226.9146 L214.5296,226.1118 L216.7744,225.5797 L216.7744,225.5797 L216.7822,225.6103 L219.0534,226.1483 L221.3602,226.8258 L223.6499,227.436 L225.9723,228.1744 L228.1879,228.4947 L228.1879,228.4947 L228.228,228.8028 L230.5005,229.1023 L232.7472,229.2032 L235.0318,229.5949 L237.3181,230.0003 L239.5482,229.9737 L239.5482,229.9737 L239.4842,229.6461 L242.1704,230.783 L244.6456,230.8409 L247.2813,231.7191 L249.7517,231.7526 L252.3576,232.4785 L252.3576,232.4785 L252.3377,232.4538 L254.7036,234.4636 L256.6044,235.8966 L258.7797,237.67 L260.978,239.4719 L263.0102,241.0678 L263.1943,241.1246 L262.2013,243.6823 L261.5229,246.3371 L260.3354,248.8348 L259.9073,251.5669 L258.9743,254.1431 L258.9743,254.1431 L259.2156,254.2217 L257.9284,258.0202 L256.7609,261.8577 L255.0368,265.5139 L253.7207,269.303 L252.7662,273.2098 L252.7662,273.2098 L252.7639,272.9222 L250.3801,273.2012 L247.9937,273.1562 L245.6109,273.5813 L243.2219,273.2037 L240.8366,273.3032 L240.8366,273.3032 L240.7997,273.1487 L238.4693,273.9776 L235.9812,274.1462 L233.6052,274.7844 L231.3391,275.882 L228.8774,276.1614 L228.8774,276.1614 L228.8856,276.3629 L226.4831,276.5994 L224.0549,276.2091 L221.6588,276.6039 L219.2557,276.8276 L216.8363,276.6528 L216.8363,276.6528 L216.8081,276.4359 L214.3328,276.2836 L211.8482,276.0602 L209.3819,275.9764 L206.8448,275.3501 L204.3473,275.0268 L204.3473,275.0268 L204.3587,275.2406 L202.0941,274.651 L199.8516,274.4742 L197.6414,274.9003 L195.3717,274.2163 L193.15,274.428 L193.15,274.428 L193.1945,274.6594 L190.6696,274.0414 L188.1297,273.3451 L185.6238,272.8255 L183.1964,272.7144 L180.6579,272.0253 L180.6579,272.0253 L180.5218,271.9992 L180.2108,268.343 L178.9741,264.5094 L178.79,260.8776 L178.0132,257.1321 L177.0768,253.356 L177.0768,253.356 L177.1878,253.3797 L177.9528,249.3571 L179.1151,245.4194 L179.9185,241.405 L180.572,237.3586 L181.3499,233.3388" fill="none" style="stroke:#555555;stroke-width:1.0417;"/><text fill="#2E2E2E" font-family="'Segoe Print'" font-size="12.5" lengthAdjust="spacing" textLength="45.6238" x="193.0521" y="256.3528">OpenAI</text></g><g class="entity" data-qualified-name="GMN24" data-source-line="55" id="ent0025"><path d="M611.3542,632.6563 L611.5488,632.6563 L610.9705,641.8021 L611.5331,650.9479 L611.7242,660.0938 L610.6936,669.2396 L611.3542,678.3854 L611.346,678.3139 L604.0218,678.8264 L596.7388,679.6993 L589.4845,680.8227 L582.1314,681.0827 L574.9167,682.5521 L574.9749,683.0614 L582.1379,682.8056 L589.4709,684.0368 L596.8246,685.4494 L604.0576,685.8065 L611.3542,686.7188 L611.4174,686.7188 L611.3246,695.8672 L611.5195,705.0156 L611.5756,714.1641 L611.8965,723.3125 L611.3542,732.4609 L615.5208,736.6276 L615.5208,738.4916 L625.8648,738.5144 L636.2088,737.3349 L646.5527,737.9153 L656.8967,738.5782 L667.2406,734.6243 L677.5846,738.5124 L687.9286,735.804 L698.2725,738.1104 L708.6165,735.2525 L718.9604,736.4373 L729.3044,738.6876 L739.6484,736.4922 L749.9923,736.9201 L760.3363,737.5682 L770.6802,737.7838 L781.0242,736.6168 L791.3682,737.4254 L801.7121,735.0376 L812.0561,736.6276 L816.2227,732.4609 L817.0127,732.4609 L817.7455,722.066 L817.4576,711.671 L817.9256,701.276 L814.8808,690.8811 L814.4111,680.4861 L814.4966,670.0911 L816.0592,659.6962 L815.6768,649.3012 L816.2227,638.9063 L816.6689,639.3524 L814.025,636.7086 L811.8315,634.515 L810.1222,632.8057 L807.4528,630.1363 L805.8061,628.4896 L805.8061,627.0476 L795.2347,630.2922 L784.6633,629.6998 L774.0919,630.5298 L763.5205,627.5957 L752.9491,629.3762 L742.3777,630.1296 L731.8063,627.1773 L721.2349,628.2233 L710.6635,628.8395 L700.0921,630.3 L689.5206,628.4779 L678.9492,629.7745 L668.3778,626.9513 L657.8064,626.6083 L647.235,629.8885 L636.6636,626.4981 L626.0922,629.9034 L615.5208,628.4896 L611.3542,632.6563" fill="#17A2B8" style="stroke:#1592A6;stroke-width:1.0417;"/><path d="M805.8061,628.4896 L806.0007,628.4896 L805.4224,630.1563 L805.985,631.8229 L806.1761,633.4896 L805.1455,635.1563 L805.8061,636.8229 L807.8894,638.9063 L807.8894,638.8343 L809.5561,638.5113 L811.2227,638.5512 L812.8894,638.8431 L814.5561,638.2661 L816.2227,638.9063 L816.5852,639.2687 L813.7267,636.4103 L811.9266,634.6101 L810.2555,632.9391 L807.8332,630.5168 L805.8061,628.4896" fill="#17A2B8" style="stroke:#1592A6;stroke-width:1.0417;"/><text fill="#FFFFFF" font-family="'Segoe Print'" font-size="12.5" lengthAdjust="spacing" textLength="70.6299" x="622.8125" y="650.509">DynamoDB</text><text fill="#FFFFFF" font-family="'Segoe Print'" font-size="12.5" lengthAdjust="spacing" textLength="3.9734" x="693.4424" y="650.509">&#160;</text><text fill="#FFFFFF" font-family="'Segoe Print'" font-size="12.5" lengthAdjust="spacing" textLength="97.9736" x="697.4158" y="650.509">responsibilities:</text><text fill="#FFFFFF" font-family="'Segoe Print'" font-size="12.5" lengthAdjust="spacing" textLength="4.5105" x="622.8125" y="665.0598">-</text><text fill="#FFFFFF" font-family="'Segoe Print'" font-size="12.5" lengthAdjust="spacing" textLength="3.9734" x="627.323" y="665.0598">&#160;</text><text fill="#FFFFFF" font-family="'Segoe Print'" font-size="12.5" lengthAdjust="spacing" textLength="43.2068" x="631.2964" y="665.0598">Source</text><text fill="#FFFFFF" font-family="'Segoe Print'" font-size="12.5" lengthAdjust="spacing" textLength="3.9734" x="674.5032" y="665.0598">&#160;</text><text fill="#FFFFFF" font-family="'Segoe Print'" font-size="12.5" lengthAdjust="spacing" textLength="12.0483" x="678.4766" y="665.0598">of</text><text fill="#FFFFFF" font-family="'Segoe Print'" font-size="12.5" lengthAdjust="spacing" textLength="3.9734" x="690.5249" y="665.0598">&#160;</text><text fill="#FFFFFF" font-family="'Segoe Print'" font-size="12.5" lengthAdjust="spacing" textLength="30.7861" x="694.4983" y="665.0598">truth</text><text fill="#FFFFFF" font-family="'Segoe Print'" font-size="12.5" lengthAdjust="spacing" textLength="4.5105" x="622.8125" y="679.6106">-</text><text fill="#FFFFFF" font-family="'Segoe Print'" font-size="12.5" lengthAdjust="spacing" textLength="3.9734" x="627.323" y="679.6106">&#160;</text><text fill="#FFFFFF" font-family="'Segoe Print'" font-size="12.5" lengthAdjust="spacing" textLength="35.8093" x="631.2964" y="679.6106">Event</text><text fill="#FFFFFF" font-family="'Segoe Print'" font-size="12.5" lengthAdjust="spacing" textLength="3.9734" x="667.1057" y="679.6106">&#160;</text><text fill="#FFFFFF" font-family="'Segoe Print'" font-size="12.5" lengthAdjust="spacing" textLength="22.3694" x="671.0791" y="679.6106">bus</text><text fill="#FFFFFF" font-family="'Segoe Print'" font-size="12.5" lengthAdjust="spacing" textLength="3.9734" x="693.4485" y="679.6106">&#160;</text><text fill="#FFFFFF" font-family="'Segoe Print'" font-size="12.5" lengthAdjust="spacing" textLength="18.5303" x="697.4219" y="679.6106">via</text><text fill="#FFFFFF" font-family="'Segoe Print'" font-size="12.5" lengthAdjust="spacing" textLength="3.9734" x="715.9521" y="679.6106">&#160;</text><text fill="#FFFFFF" font-family="'Segoe Print'" font-size="12.5" lengthAdjust="spacing" textLength="52.0142" x="719.9255" y="679.6106">Streams</text><text fill="#FFFFFF" font-family="'Segoe Print'" font-size="12.5" lengthAdjust="spacing" textLength="4.5105" x="622.8125" y="694.1614">-</text><text fill="#FFFFFF" font-family="'Segoe Print'" font-size="12.5" lengthAdjust="spacing" textLength="3.9734" x="627.323" y="694.1614">&#160;</text><text fill="#FFFFFF" font-family="'Segoe Print'" font-size="12.5" lengthAdjust="spacing" textLength="52.3499" x="631.2964" y="694.1614">Strongly</text><text fill="#FFFFFF" font-family="'Segoe Print'" font-size="12.5" lengthAdjust="spacing" textLength="3.9734" x="683.6462" y="694.1614">&#160;</text><text fill="#FFFFFF" font-family="'Segoe Print'" font-size="12.5" lengthAdjust="spacing" textLength="64.3555" x="687.6196" y="694.1614">consistent</text><text fill="#FFFFFF" font-family="'Segoe Print'" font-size="12.5" lengthAdjust="spacing" textLength="3.9734" x="751.9751" y="694.1614">&#160;</text><text fill="#FFFFFF" font-family="'Segoe Print'" font-size="12.5" lengthAdjust="spacing" textLength="34.9365" x="755.9485" y="694.1614">reads</text><text fill="#FFFFFF" font-family="'Segoe Print'" font-size="12.5" lengthAdjust="spacing" textLength="4.5105" x="622.8125" y="708.7122">-</text><text fill="#FFFFFF" font-family="'Segoe Print'" font-size="12.5" lengthAdjust="spacing" textLength="3.9734" x="627.323" y="708.7122">&#160;</text><text fill="#FFFFFF" font-family="'Segoe Print'" font-size="12.5" lengthAdjust="spacing" textLength="80.2429" x="631.2964" y="708.7122">Exactly-once</text><text fill="#FFFFFF" font-family="'Segoe Print'" font-size="12.5" lengthAdjust="spacing" textLength="3.9734" x="711.5393" y="708.7122">&#160;</text><text fill="#FFFFFF" font-family="'Segoe Print'" font-size="12.5" lengthAdjust="spacing" textLength="48.4558" x="715.5127" y="708.7122">*effect*</text><text fill="#FFFFFF" font-family="'Segoe Print'" font-size="12.5" lengthAdjust="spacing" textLength="7.9468" x="622.8125" y="723.2629">&#160;&#160;</text><text fill="#FFFFFF" font-family="'Segoe Print'" font-size="12.5" lengthAdjust="spacing" textLength="18.5303" x="630.7593" y="723.2629">via</text><text fill="#FFFFFF" font-family="'Segoe Print'" font-size="12.5" lengthAdjust="spacing" textLength="3.9734" x="649.2896" y="723.2629">&#160;</text><text fill="#FFFFFF" font-family="'Segoe Print'" font-size="12.5" lengthAdjust="spacing" textLength="77.124" x="653.2629" y="723.2629">transactions</text></g><g class="entity" data-qualified-name="GMN27" data-source-line="64" id="ent0028"><path d="M16.6667,647.2083 L17.2505,647.2083 L15.5158,657.3088 L17.2036,667.4092 L17.7769,677.5097 L14.685,687.6101 L16.4508,697.7106 L15.482,707.811 L16.6667,717.9115 L20.8333,722.0781 L20.8333,721.0129 L31.066,721.8888 L41.2986,720.1577 L51.5313,723.616 L61.7639,720.3273 L71.9966,721.5288 L82.2292,723.278 L92.4619,721.8399 L102.6945,722.2677 L112.9271,721.9894 L123.1598,722.574 L133.3924,722.7424 L143.6251,723.705 L153.8577,723.9422 L164.0904,723.965 L174.323,722.7854 L184.5557,723.3659 L194.7883,724.0288 L205.021,720.0748 L215.2536,723.9629 L225.4862,722.0781 L229.6529,717.9115 L228.8293,717.9115 L231.1357,707.1693 L228.2778,696.4271 L229.4626,685.6849 L231.7129,674.9427 L229.5175,664.2005 L229.6529,653.4583 L229.7219,653.5273 L227.7913,651.5967 L225.7588,649.5642 L223.4004,647.2058 L221.5076,645.313 L219.2362,643.0417 L219.2362,641.4516 L208.794,643.8316 L198.3517,644.5644 L187.9095,644.2765 L177.4672,644.7445 L167.025,641.6998 L156.5827,641.23 L146.1404,641.3156 L135.6982,642.8781 L125.2559,642.4958 L114.8137,644.9345 L104.3714,642.5565 L93.9291,642.0887 L83.4869,643.6757 L73.0446,641.1893 L62.6024,641.5997 L52.1601,644.8443 L41.7179,644.2519 L31.2756,645.0819 L20.8333,643.0417 L16.6667,647.2083" fill="#17A2B8" style="stroke:#1592A6;stroke-width:1.0417;"/><path d="M219.2362,643.0417 L219.4309,643.0417 L218.8526,644.7083 L219.4152,646.375 L219.6063,648.0417 L218.5757,649.7083 L219.2362,651.375 L221.3196,653.4583 L221.3196,653.3864 L222.9862,653.0634 L224.6529,653.1032 L226.3196,653.3952 L227.9862,652.8182 L229.6529,653.4583 L230.0154,653.8208 L227.1569,650.9623 L225.3568,649.1622 L223.6857,647.4911 L221.2634,645.0688 L219.2362,643.0417" fill="#17A2B8" style="stroke:#1592A6;stroke-width:1.0417;"/><text fill="#FFFFFF" font-family="'Segoe Print'" font-size="12.5" lengthAdjust="spacing" textLength="51.886" x="28.125" y="665.0611">Delivery</text><text fill="#FFFFFF" font-family="'Segoe Print'" font-size="12.5" lengthAdjust="spacing" textLength="3.9734" x="80.011" y="665.0611">&#160;</text><text fill="#FFFFFF" font-family="'Segoe Print'" font-size="12.5" lengthAdjust="spacing" textLength="67.9321" x="83.9844" y="665.0611">semantics:</text><text fill="#FFFFFF" font-family="'Segoe Print'" font-size="12.5" lengthAdjust="spacing" textLength="4.5105" x="28.125" y="679.6119">-</text><text fill="#FFFFFF" font-family="'Segoe Print'" font-size="12.5" lengthAdjust="spacing" textLength="3.9734" x="32.6355" y="679.6119">&#160;</text><text fill="#FFFFFF" font-family="'Segoe Print'" font-size="12.5" lengthAdjust="spacing" textLength="82.843" x="36.6089" y="679.6119">At-least-once</text><text fill="#FFFFFF" font-family="'Segoe Print'" font-size="12.5" lengthAdjust="spacing" textLength="3.9734" x="119.4519" y="679.6119">&#160;</text><text fill="#FFFFFF" font-family="'Segoe Print'" font-size="12.5" lengthAdjust="spacing" textLength="61.5173" x="123.4253" y="679.6119">execution</text><text fill="#FFFFFF" font-family="'Segoe Print'" font-size="12.5" lengthAdjust="spacing" textLength="4.5105" x="28.125" y="694.1627">-</text><text fill="#FFFFFF" font-family="'Segoe Print'" font-size="12.5" lengthAdjust="spacing" textLength="3.9734" x="32.6355" y="694.1627">&#160;</text><text fill="#FFFFFF" font-family="'Segoe Print'" font-size="12.5" lengthAdjust="spacing" textLength="44.0918" x="36.6089" y="694.1627">Retries</text><text fill="#FFFFFF" font-family="'Segoe Print'" font-size="12.5" lengthAdjust="spacing" textLength="3.9734" x="80.7007" y="694.1627">&#160;</text><text fill="#FFFFFF" font-family="'Segoe Print'" font-size="12.5" lengthAdjust="spacing" textLength="50.5371" x="84.6741" y="694.1627">handled</text><text fill="#FFFFFF" font-family="'Segoe Print'" font-size="12.5" lengthAdjust="spacing" textLength="3.9734" x="135.2112" y="694.1627">&#160;</text><text fill="#FFFFFF" font-family="'Segoe Print'" font-size="12.5" lengthAdjust="spacing" textLength="15.332" x="139.1846" y="694.1627">by</text><text fill="#FFFFFF" font-family="'Segoe Print'" font-size="12.5" lengthAdjust="spacing" textLength="3.9734" x="154.5166" y="694.1627">&#160;</text><text fill="#FFFFFF" font-family="'Segoe Print'" font-size="12.5" lengthAdjust="spacing" textLength="50.3296" x="158.49" y="694.1627">Lambda</text><text fill="#FFFFFF" font-family="'Segoe Print'" font-size="12.5" lengthAdjust="spacing" textLength="4.5105" x="28.125" y="708.7135">-</text><text fill="#FFFFFF" font-family="'Segoe Print'" font-size="12.5" lengthAdjust="spacing" textLength="3.9734" x="32.6355" y="708.7135">&#160;</text><text fill="#FFFFFF" font-family="'Segoe Print'" font-size="12.5" lengthAdjust="spacing" textLength="81.8542" x="36.6089" y="708.7135">Idempotency</text><text fill="#FFFFFF" font-family="'Segoe Print'" font-size="12.5" lengthAdjust="spacing" textLength="3.9734" x="118.4631" y="708.7135">&#160;</text><text fill="#FFFFFF" font-family="'Segoe Print'" font-size="12.5" lengthAdjust="spacing" textLength="52.9236" x="122.4365" y="708.7135">required</text></g><g class="entity" data-qualified-name="GMN30" data-source-line="71" id="ent0031"><path d="M924.8125,411.3958 L925.3963,411.3958 L923.6616,421.4963 L925.3494,431.5967 L925.9227,441.6972 L922.8308,451.7976 L924.5966,461.8981 L923.6278,471.9985 L924.8125,482.099 L928.9792,486.2656 L928.9792,485.2004 L939.3278,486.0763 L949.6764,484.3452 L960.025,487.8035 L970.3737,484.5148 L980.7223,485.7163 L991.0709,487.4655 L1001.4195,486.0274 L1011.7682,486.4552 L1022.1168,486.1769 L1032.4654,486.7615 L1042.814,486.9299 L1053.1627,487.8925 L1063.5113,488.1297 L1073.8599,488.1525 L1084.2085,486.9729 L1094.5571,487.5534 L1104.9058,488.2163 L1115.2544,486.2656 L1119.4211,482.099 L1117.4178,482.099 L1121.3058,471.3568 L1118.5974,460.6146 L1120.9039,449.8724 L1118.046,439.1302 L1119.2308,428.388 L1119.4211,417.6458 L1119.9066,418.1314 L1117.3058,415.5306 L1115.3233,413.5481 L1113.3928,411.6175 L1111.3602,409.585 L1109.0044,407.2292 L1109.0044,407.2183 L1098.4147,408.027 L1087.825,405.6391 L1077.2352,408.0191 L1066.6455,408.7519 L1056.0558,408.464 L1045.4661,408.932 L1034.8764,405.8873 L1024.2866,405.4175 L1013.6969,405.5031 L1003.1072,407.0656 L992.5175,406.6833 L981.9278,409.122 L971.338,406.744 L960.7483,406.2762 L950.1586,407.8632 L939.5689,405.3768 L928.9792,407.2292 L924.8125,411.3958" fill="#17A2B8" style="stroke:#1592A6;stroke-width:1.0417;"/><path d="M1109.0044,407.2292 L1109.199,407.2292 L1108.6208,408.8958 L1109.1834,410.5625 L1109.3745,412.2292 L1108.3438,413.8958 L1109.0044,415.5625 L1111.0877,417.6458 L1111.0877,417.5739 L1112.7544,417.2509 L1114.4211,417.2907 L1116.0877,417.5827 L1117.7544,417.0057 L1119.4211,417.6458 L1119.7835,418.0083 L1116.9251,415.1498 L1115.1249,413.3497 L1113.4539,411.6786 L1111.0316,409.2563 L1109.0044,407.2292" fill="#17A2B8" style="stroke:#1592A6;stroke-width:1.0417;"/><text fill="#FFFFFF" font-family="'Segoe Print'" font-size="12.5" lengthAdjust="spacing" textLength="36.1877" x="936.2708" y="429.2486">Client</text><text fill="#FFFFFF" font-family="'Segoe Print'" font-size="12.5" lengthAdjust="spacing" textLength="3.9734" x="972.4586" y="429.2486">&#160;</text><text fill="#FFFFFF" font-family="'Segoe Print'" font-size="12.5" lengthAdjust="spacing" textLength="97.9736" x="976.432" y="429.2486">responsibilities:</text><text fill="#FFFFFF" font-family="'Segoe Print'" font-size="12.5" lengthAdjust="spacing" textLength="4.5105" x="936.2708" y="443.7994">-</text><text fill="#FFFFFF" font-family="'Segoe Print'" font-size="12.5" lengthAdjust="spacing" textLength="3.9734" x="940.7813" y="443.7994">&#160;</text><text fill="#FFFFFF" font-family="'Segoe Print'" font-size="12.5" lengthAdjust="spacing" textLength="86.5295" x="944.7547" y="443.7994">Deduplication</text><text fill="#FFFFFF" font-family="'Segoe Print'" font-size="12.5" lengthAdjust="spacing" textLength="4.5105" x="936.2708" y="458.3502">-</text><text fill="#FFFFFF" font-family="'Segoe Print'" font-size="12.5" lengthAdjust="spacing" textLength="3.9734" x="940.7813" y="458.3502">&#160;</text><text fill="#FFFFFF" font-family="'Segoe Print'" font-size="12.5" lengthAdjust="spacing" textLength="83.3313" x="944.7547" y="458.3502">Cursor-based</text><text fill="#FFFFFF" font-family="'Segoe Print'" font-size="12.5" lengthAdjust="spacing" textLength="3.9734" x="1028.086" y="458.3502">&#160;</text><text fill="#FFFFFF" font-family="'Segoe Print'" font-size="12.5" lengthAdjust="spacing" textLength="66.5283" x="1032.0594" y="458.3502">pagination</text><text fill="#FFFFFF" font-family="'Segoe Print'" font-size="12.5" lengthAdjust="spacing" textLength="4.5105" x="936.2708" y="472.901">-</text><text fill="#FFFFFF" font-family="'Segoe Print'" font-size="12.5" lengthAdjust="spacing" textLength="3.9734" x="940.7813" y="472.901">&#160;</text><text fill="#FFFFFF" font-family="'Segoe Print'" font-size="12.5" lengthAdjust="spacing" textLength="32.6172" x="944.7547" y="472.901">Local</text><text fill="#FFFFFF" font-family="'Segoe Print'" font-size="12.5" lengthAdjust="spacing" textLength="3.9734" x="977.3719" y="472.901">&#160;</text><text fill="#FFFFFF" font-family="'Segoe Print'" font-size="12.5" lengthAdjust="spacing" textLength="56.1768" x="981.3453" y="472.901">message</text><text fill="#FFFFFF" font-family="'Segoe Print'" font-size="12.5" lengthAdjust="spacing" textLength="3.9734" x="1037.5221" y="472.901">&#160;</text><text fill="#FFFFFF" font-family="'Segoe Print'" font-size="12.5" lengthAdjust="spacing" textLength="37.0178" x="1041.4954" y="472.901">cache</text></g><!--link Users to Frontend--><g class="link" data-entity-1="ent0002" data-entity-2="ent0004" data-link-type="dependency" data-source-line="34" id="lnk13"><path d="M882.5313,104.5313 L882.8232,104.5313 L881.9558,114.5938 L882.7997,124.6563 L883.0864,134.7188 L881.5404,144.7813 L882.4233,154.8438 L881.9389,164.9063 L881.9986,174.9688 L882.4366,185.0313 L881.571,195.0938 L883.3002,205.1563 L882.5313,215.2188" fill="none" style="stroke:#333333;stroke-width:3.125;"/><polygon fill="#333333" points="882.5313,221.4688,882.5979,221.4984,883.2331,219.5353,884.2592,217.746,885.1581,215.9001,885.6382,213.8681,886.6979,212.0938,886.6788,212.0747,885.7599,212.8224,884.9371,213.6663,884.1812,214.577,883.1948,215.2573,882.5313,216.2604,882.6672,216.3963,881.5432,215.2723,880.816,214.5452,880.1373,213.8665,879.1769,212.906,878.3646,212.0938,878.3862,212.1034,879.1878,213.9642,880.0879,215.8689,880.9405,217.7525,881.8838,219.6763,882.5313,221.4688" style="stroke:#333333;stroke-width:3.125;"/><text fill="#2E2E2E" font-family="'Segoe Print'" font-size="12.5" lengthAdjust="spacing" textLength="29.2114" x="888.7813" y="153.2382">Chat</text><text fill="#2E2E2E" font-family="'Segoe Print'" font-size="12.5" lengthAdjust="spacing" textLength="3.9734" x="917.9927" y="153.2382">&#160;</text><text fill="#2E2E2E" font-family="'Segoe Print'" font-size="12.5" lengthAdjust="spacing" textLength="12.8357" x="921.9661" y="153.2382">UI</text></g><!--link Frontend to Backend--><g class="link" data-entity-1="ent0004" data-entity-2="ent0006" data-link-type="dependency" data-source-line="35" id="lnk14"><path d="M874.375,282.5417 L874.4672,282.5727 L873.0277,285.9476 L872.1288,289.5043 L871.0538,293.0018 L869.3998,296.3047 L868.5474,299.877 L868.5138,299.8639 L866.8906,303.5904 L865.4364,307.3826 L864.0997,311.2206 L862.3581,314.901 L861.1836,318.8021 L861.4181,318.9055 L860.0659,320.6138 L859.3985,322.6241 L858.8146,324.6712 L857.7446,326.504 L856.9302,328.4495 L856.9587,328.4632 L855.9905,330.3532 L855.1518,332.306 L854.2507,334.2285 L853.4687,336.2087 L852.2983,338.0007 L852.5718,338.1481 L851.5734,340.008 L850.3987,341.7728 L849.4821,343.6768 L848.5776,345.5873 L847.2897,347.2911 L847.0044,347.1178 L846.4815,349.2272 L845.019,350.7659 L844.2709,352.7385 L842.7871,354.2643 L841.9063,356.1563 L841.88,356.1384 L840.9001,358.2431 L839.3077,359.9307 L838.0767,361.8645 L836.876,363.8189 L835.4565,365.6242 L835.6107,365.7397 L834.1087,367.4205 L832.8702,369.2987 L831.2053,370.8575 L830.1764,372.8927 L828.7247,374.6112 L828.9213,374.7716 L827.4931,376.4463 L826.1625,378.2007 L824.3783,379.5849 L822.9266,381.2405 L821.7696,383.1364 L821.5537,382.9462 L820.3252,384.7349 L818.8535,386.3093 L817.7346,388.1945 L816.0133,389.5491 L814.6501,391.2191 L814.5362,391.1084 L811.8266,394.2756 L808.6302,396.9697 L805.78,400.0003 L803.2685,403.3601 L800.1537,406.1336 L800.2908,406.2816 L797.4953,409.0581 L794.2736,411.3742 L791.5858,414.2669 L788.7817,417.034 L785.7065,419.5084" fill="none" style="stroke:#333333;stroke-width:3.125;"/><polygon fill="#333333" points="781.0313,423.6563,781.0533,423.7258,782.9433,422.8982,784.9628,422.4783,786.9401,421.9256,788.7788,420.9362,790.8094,420.5514,790.8077,420.5244,789.6241,420.3332,788.4486,420.2778,787.2787,420.3168,786.0894,420.0304,784.9273,420.1997,785.1192,420.2112,784.7792,419.0103,784.9994,417.8428,785.288,416.6794,785.1789,415.4923,785.2789,414.3177,785.3005,414.3275,784.4193,416.1808,783.6363,418.0788,782.8059,419.9552,782.0659,421.8727,781.0313,423.6563" style="stroke:#333333;stroke-width:3.125;"/><text fill="#2E2E2E" font-family="'Segoe Print'" font-size="12.5" lengthAdjust="spacing" textLength="32.1533" x="903.6382" y="333.384">REST</text><text fill="#2E2E2E" font-family="'Segoe Print'" font-size="12.5" lengthAdjust="spacing" textLength="44.7754" x="867.9479" y="347.9348">Publish</text><text fill="#2E2E2E" font-family="'Segoe Print'" font-size="12.5" lengthAdjust="spacing" textLength="3.9734" x="912.7233" y="347.9348">&#160;</text><text fill="#2E2E2E" font-family="'Segoe Print'" font-size="12.5" lengthAdjust="spacing" textLength="54.7852" x="916.6967" y="347.9348">Message</text></g><!--link Backend to Frontend--><g class="link" data-entity-1="ent0006" data-entity-2="ent0004" data-link-type="dependency" data-source-line="49" id="lnk22"><path d="M737.8021,423.5833 L737.8843,423.6355 L736.2227,421.246 L735.0428,419.1621 L733.7061,416.9787 L731.8535,414.4681 L730.715,412.4104 L730.6836,412.393 L729.1389,409.7874 L727.7528,407.2698 L726.4769,404.8135 L724.8211,402.1462 L723.6974,399.7744 L723.9301,399.8818 L722.1675,396.9119 L721.0843,394.2557 L720.084,391.6377 L718.6014,388.797 L717.3725,386.0734 L717.4023,386.0838 L716.3567,383.195 L715.4468,380.3536 L714.4715,377.4893 L713.6212,374.6685 L712.3633,371.7057 L712.6673,371.7695 L712.057,368.843 L711.2506,365.8754 L710.7312,362.968 L710.2253,360.0635 L709.2931,357.0695 L708.9594,357.0578 L709.5054,354.1791 L708.9527,351.262 L709.2352,348.3741 L708.6576,345.4561 L708.785,342.5628 L708.7538,342.5569 L709.6576,339.8316 L709.8337,336.9671 L710.4392,334.1847 L711.0807,331.4093 L711.4622,328.584 L711.6348,328.6698 L712.7577,325.9727 L714.1756,323.4221 L715.1163,320.6344 L716.7687,318.2004 L717.9479,315.5313 L718.1464,315.6894 L719.9765,313.3165 L721.9052,311.0221 L723.3761,308.3627 L725.1826,305.9709 L727.2864,303.8161 L727.0876,303.6082 L729.3699,301.7859 L731.4281,299.7293 L733.8114,298.0125 L735.6398,295.7156 L737.798,293.7635 L737.7033,293.6359 L740.1615,292.1421 L742.2152,290.1029 L744.5565,288.4515 L747.1792,287.1795 L749.3008,285.2318 L749.4021,285.4062 L751.9341,284.0953 L754.151,282.2419 L756.7626,281.068 L759.2881,279.7461 L761.6133,278.0792 L761.5224,277.8803 L764.183,276.8557 L766.8138,275.7661 L769.5031,274.8044 L771.9649,273.3452 L774.5538,272.1639 L774.6263,272.3653 L777.1443,270.9587 L779.8022,269.9409 L782.6648,269.4913 L785.1507,267.9957 L787.9404,267.3441 L788.0047,267.5708 L790.6968,266.6629 L793.3671,265.6783 L796.0865,264.8669 L798.9193,264.4556 L801.5916,263.478 L801.5616,263.3428 L804.3979,263.1347 L807.0297,262.0066 L809.8941,261.9246 L812.6275,261.2537 L815.3256,260.424" fill="none" style="stroke:#333333;stroke-width:3.125;"/><polygon fill="#333333" points="821.4583,259.2188,821.4746,259.2899,819.4258,258.6224,817.4722,258.3719,815.4877,257.9857,813.4012,257.1527,811.4558,256.9381,811.4408,256.9157,812.3516,257.4722,813.3384,258.1416,814.3778,258.8895,815.2355,259.3668,816.3478,260.2231,816.5073,260.3303,815.5091,261.0795,814.9768,262.1416,814.5013,263.2419,813.695,264.1201,813.0628,265.1151,813.0764,265.1344,814.7355,263.9267,816.4566,262.8073,818.1478,261.6452,819.8961,260.5644,821.4583,259.2188" style="stroke:#333333;stroke-width:3.125;"/><text fill="#2E2E2E" font-family="'Segoe Print'" font-size="12.5" lengthAdjust="spacing" textLength="70.2698" x="724.1979" y="333.384">WebSocket</text><text fill="#2E2E2E" font-family="'Segoe Print'" font-size="12.5" lengthAdjust="spacing" textLength="3.9734" x="794.4677" y="333.384">&#160;</text><text fill="#2E2E2E" font-family="'Segoe Print'" font-size="12.5" lengthAdjust="spacing" textLength="29.895" x="798.4411" y="333.384">Push</text><text fill="#2E2E2E" font-family="'Segoe Print'" font-size="12.5" lengthAdjust="spacing" textLength="91.7053" x="730.4143" y="347.9348">(at-least-once)</text></g><!--link Backend to DDB--><g class="link" data-entity-1="ent0006" data-entity-2="ent0008" data-link-type="dependency" data-source-line="36" id="lnk15"><path d="M702.7708,470.125 L702.8135,470.2124 L700.7338,470.9065 L698.9044,472.1131 L696.9935,473.1528 L694.8146,473.6436 L693.0067,474.8942 L692.9904,474.8621 L690.8957,475.7471 L688.8834,476.7937 L686.9282,477.9526 L684.7759,478.7243 L682.8997,480.0384 L683.0202,480.2647 L680.6979,480.8802 L678.7272,482.1563 L676.7995,483.513 L674.6221,484.4008 L672.576,485.5352 L672.5914,485.5627 L670.4859,486.6876 L668.4505,487.938 L666.3813,489.1279 L664.3768,490.4332 L662.1615,491.362 L662.3195,491.6294 L660.2456,492.8596 L658.0697,493.9172 L656.043,495.2274 L654.0234,496.5494 L651.7821,497.4964 L651.6044,497.2137 L649.9055,499.0463 L647.6217,499.948 L645.7826,501.5574 L643.4855,502.438 L641.5638,503.916 L641.5461,503.8897 L639.7692,505.5373 L637.5787,506.5702 L635.6323,507.9658 L633.7064,509.3919 L631.6326,510.5983 L631.746,510.7541 L629.728,511.9814 L627.9036,513.4749 L625.7659,514.5375 L624.0956,516.2428 L622.1146,517.5208 L622.2815,517.712 L620.9624,518.7996 L619.7261,519.9821 L618.1049,520.7234 L616.7659,521.7882 L615.6769,523.1393 L615.4764,522.933 L613.7368,524.987 L611.7713,526.8085 L610.1336,528.9672 L607.9362,530.5502 L606.0715,532.4755 L605.9583,532.3641 L603.713,535.0233 L600.9839,537.2063 L598.5988,539.728 L596.5505,542.5809 L593.9026,544.8439 L594.0481,544.9836 L591.3222,548.0224 L588.1438,550.6268 L585.5323,553.7754 L582.7972,556.8055 L579.7744,559.5592 L579.6151,559.4094 L573.3986,566.2749 L567.1301,573.0913 L560.964,580.0041 L554.3993,586.5421 L548.0573,593.2895 L548.5288,593.7259 L541.0323,599.7458 L534.4459,606.6081 L529.1889,614.7011 L521.4844,620.5283 L515.7545,628.1836" fill="none" style="stroke:#333333;stroke-width:3.125;"/><polygon fill="#333333" points="511.5208,632.7813,511.5498,632.8482,513.3468,631.8344,515.3137,631.2132,517.2253,630.4642,518.955,629.2947,520.9364,628.7072,520.9353,628.6802,519.7528,628.6078,518.5759,628.6712,517.4029,628.8291,516.2165,628.6615,515.0489,628.9499,515.241,628.9578,514.7817,627.7633,514.8832,626.592,515.0531,625.4235,514.825,624.2386,514.8062,623.0623,514.8287,623.0699,514.1386,625.0025,513.5508,626.9697,512.9136,628.9203,512.3706,630.9026,511.5208,632.7813" style="stroke:#333333;stroke-width:3.125;"/><text fill="#2E2E2E" font-family="'Segoe Print'" font-size="12.5" lengthAdjust="spacing" textLength="41.7664" x="628.3646" y="549.9569">Persist</text><text fill="#2E2E2E" font-family="'Segoe Print'" font-size="12.5" lengthAdjust="spacing" textLength="3.9734" x="670.1309" y="549.9569">&#160;</text><text fill="#2E2E2E" font-family="'Segoe Print'" font-size="12.5" lengthAdjust="spacing" textLength="61.2976" x="674.1043" y="549.9569">Messages</text></g><!--link Backend to DDB--><g class="link" data-entity-1="ent0006" data-entity-2="ent0008" data-link-type="dependency" data-source-line="52" id="lnk23"><path d="M760.4583,469.875 L760.5538,469.8937 L760.7163,472.1221 L761.4387,474.46 L761.9787,476.7622 L761.9192,478.9473 L762.6896,481.2945 L762.654,481.2896 L762.8507,483.8288 L763.227,486.3931 L763.7282,488.9748 L763.799,491.4965 L764.4727,494.1022 L764.7283,494.1202 L764.3745,496.8232 L764.7672,499.5786 L765.2509,502.3405 L765.2048,505.0651 L765.4373,507.8093 L765.4689,507.8098 L765.3778,510.6326 L765.4305,513.4577 L765.4138,516.2817 L765.5294,519.1078 L765.2135,521.9271 L765.5217,521.9662 L765.169,524.7746 L764.6175,527.5578 L764.357,530.3779 L764.1101,533.1997 L763.4312,535.9667 L763.1093,535.878 L762.9918,538.7447 L761.8144,541.3194 L761.4428,544.116 L760.2413,546.684 L759.7201,549.4395 L759.6915,549.4256 L758.8271,552.0724 L757.2958,554.3965 L756.158,556.9109 L755.0532,559.4414 L753.7101,561.8565 L753.8607,561.9767 L751.9729,564.0299 L750.3425,566.2885 L748.2957,568.2148 L746.8699,570.6368 L745.0313,572.7292 L745.1204,572.9668 L743.2325,573.6241 L741.3889,574.3993 L739.3396,574.6265 L737.4411,575.2554 L735.6762,576.2403 L735.6441,575.9544 L732.217,576.6011 L728.7538,576.9256 L725.3431,577.7174 L721.8428,577.7114 L718.3957,578.1797 L718.3881,578.021 L716.2397,578.3884 L714.059,578.0776 L711.9012,578.249 L709.766,578.8923 L707.5907,578.6953 L707.5956,578.8969 L705.2354,579.0923 L702.8601,578.6604 L700.5037,579.0141 L698.1432,579.1966 L695.7731,578.9804 L695.7723,578.7617 L690.6967,578.955 L685.6209,579.0768 L680.5455,579.3392 L675.4682,579.0546 L670.3919,579.0755 L670.3934,579.2897 L665.2788,578.7837 L660.1672,578.6911 L655.0596,579.2023 L649.9444,578.6017 L644.8354,578.8982 L644.8356,579.1338 L640.2058,578.9905 L635.576,578.7675 L630.9463,578.7244 L626.3168,579.0972 L621.687,578.8815 L621.6826,578.743 L618.0643,579.2708 L614.4161,578.8566 L610.8019,579.5135 L607.1686,579.5673 L603.53,579.4586 L603.547,579.5707 L601.4169,579.801 L599.3476,580.4327 L597.2233,580.7018 L595.0761,580.8192 L592.9479,581.0625 L592.9954,581.1772 L590.7745,581.8963 L588.7739,583.148 L586.5241,583.7973 L584.3769,584.6944 L582.196,585.51 L582.0738,585.2563 L580.0682,586.3264 L578.2098,587.7022 L576.1431,588.6454 L574.0017,589.4336 L571.964,590.4368 L571.892,590.3062 L569.9611,591.424 L567.9028,592.3105 L566.1946,593.833 L564.3132,595.0407 L562.194,595.8168 L562.3224,596.0239 L560.4904,597.2516 L558.4143,598.0857 L556.5958,599.3352 L554.6068,600.3098 L552.8282,601.6237 L552.9027,601.732 L551.089,602.9594 L549.3653,604.3175 L547.3561,605.2608 L545.5772,606.5387 L543.8086,607.8315 L543.9321,607.9954 L542.2204,609.3577 L540.1732,610.275 L538.5157,611.7093 L536.8651,613.1527 L535.0772,614.414 L534.8985,614.1949 L533.4804,615.9271 L531.7522,617.2791 L529.9471,618.5366 L528.318,620.01 L526.5762,621.3452 L526.7977,621.5996 L524.8153,622.6867 L523.3405,624.3567 L521.6658,625.7972 L519.9485,627.1886 L518.2475,628.5989" fill="none" style="stroke:#333333;stroke-width:3.125;"/><polygon fill="#333333" points="513.5938,632.7708,513.6162,632.8403,515.5019,632.0029,517.5192,631.5726,519.4936,631.0097,521.3271,630.0109,523.3557,629.6155,523.3542,629.5886,522.1709,629.4034,520.9949,629.354,519.8241,629.3991,518.6356,629.1188,517.4719,629.2942,517.6639,629.3047,517.3176,628.1056,517.5318,626.937,517.8144,625.7721,517.6992,624.5856,517.7932,623.4105,517.8148,623.4202,516.9432,625.278,516.17,627.18,515.3493,629.0607,514.6192,630.982,513.5938,632.7708" style="stroke:#333333;stroke-width:3.125;"/><text fill="#2E2E2E" font-family="'Segoe Print'" font-size="12.5" lengthAdjust="spacing" textLength="31.9702" x="771.0729" y="535.3736">Read</text><text fill="#2E2E2E" font-family="'Segoe Print'" font-size="12.5" lengthAdjust="spacing" textLength="3.9734" x="803.0431" y="535.3736">&#160;</text><text fill="#2E2E2E" font-family="'Segoe Print'" font-size="12.5" lengthAdjust="spacing" textLength="61.2976" x="807.0165" y="535.3736">Messages</text><text fill="#2E2E2E" font-family="'Segoe Print'" font-size="12.5" lengthAdjust="spacing" textLength="47.8699" x="774.1552" y="549.9244">(history</text><text fill="#2E2E2E" font-family="'Segoe Print'" font-size="12.5" lengthAdjust="spacing" textLength="3.9734" x="822.0251" y="549.9244">&#160;</text><text fill="#2E2E2E" font-family="'Segoe Print'" font-size="12.5" lengthAdjust="spacing" textLength="39.2334" x="825.9985" y="549.9244">cursor</text><text fill="#2E2E2E" font-family="'Segoe Print'" font-size="12.5" lengthAdjust="spacing" textLength="71.405" x="783.991" y="564.4752">pagination)</text></g><!--link DDB to BotLambda--><g class="link" data-entity-1="ent0008" data-entity-2="ent0010" data-link-type="dependency" data-source-line="39" id="lnk16"><path d="M394.6354,632.6458 L394.6951,632.7227 L392.8019,631.1623 L391.2585,630.0526 L389.6012,628.7961 L387.5693,627.057 L386.0559,625.986 L386.0334,625.9579 L384.2037,624.4426 L382.4877,623.0687 L380.8506,621.793 L378.9414,620.1787 L377.4134,619.0387 L377.5777,619.2355 L375.5,617.3729 L373.902,616.0847 L372.3626,614.8666 L370.4826,613.2407 L368.7817,611.8293 L368.8024,611.8531 L367.0625,610.3289 L365.417,608.913 L363.726,607.4449 L362.1219,606.0766 L360.2344,604.3828 L360.4438,604.6123 L358.7686,603.0834 L356.9582,601.4065 L355.3456,599.9463 L353.7423,598.4962 L351.8453,596.7244 L351.6139,596.4838 L350.4316,595.3818 L348.4873,593.4874 L347.1223,592.1954 L345.1607,590.2831 L343.6882,588.8792 L343.6655,588.857 L342.363,587.5183 L340.5314,585.6607 L339.0121,584.1093 L337.5189,582.5836 L335.8367,580.8724 L335.9787,581.0027 L334.3409,579.2426 L332.9458,577.705 L331.1582,575.8073 L329.956,574.4468 L328.3646,572.7292 L328.5697,572.8786 L326.4038,569.9313 L324.3397,567.0581 L321.8025,563.8401 L319.6121,560.8749 L317.729,558.1336 L317.4705,558.0073 L316.4522,555.5582 L315.1426,552.9668 L314.2555,550.5818 L312.6471,547.8444 L311.4674,545.3164 L311.324,545.2481 L310.3336,542.7792 L308.7302,540.0186 L307.5626,537.4654 L306.8217,535.1152 L305.3211,532.4035 L305.487,532.5182 L303.5428,529.6203 L301.0826,526.3657 L299.2688,523.5579 L297.3141,520.6528 L295.0313,517.5208 L294.8664,517.3771 L293.231,515.4661 L291.5416,513.508 L289.9583,511.6424 L287.9626,509.4172 L286.1973,507.3929 L286.3518,507.5412 L284.2764,505.4069 L282.4991,503.5588 L281.1576,502.1289 L279.0139,499.9291 L277.5174,498.3505 L277.6794,498.5216 L275.7823,496.7154 L273.8304,494.8513 L272.0023,493.1178 L270.46,491.6865 L268.5132,489.8276 L268.422,489.7233 L266.7322,488.3201 L264.4222,486.2072 L262.8173,484.9013 L260.8155,483.141 L258.7066,481.2583" fill="none" style="stroke:#333333;stroke-width:3.125;"/><polygon fill="#333333" points="253.9375,477.2188,254.0032,477.2505,254.7001,479.0039,255.7822,480.9434,256.7389,482.8223,257.2829,484.502,258.3981,486.4575,258.3712,486.4553,258.1533,485.2708,258.0709,484.0975,258.0827,482.9321,257.7698,481.7397,257.9118,480.585,257.9276,480.7766,259.0682,480.2697,260.2551,480.3221,261.4476,480.4427,262.6073,480.1663,263.7842,480.0987,263.7909,480.1214,261.8118,479.512,259.8629,479.0062,257.8995,478.4504,255.9639,477.9899,253.9375,477.2188" style="stroke:#333333;stroke-width:3.125;"/><text fill="#2E2E2E" font-family="'Segoe Print'" font-size="12.5" lengthAdjust="spacing" textLength="45.5017" x="334.6146" y="542.6653">Stream</text><text fill="#2E2E2E" font-family="'Segoe Print'" font-size="12.5" lengthAdjust="spacing" textLength="3.9734" x="380.1163" y="542.6653">&#160;</text><text fill="#2E2E2E" font-family="'Segoe Print'" font-size="12.5" lengthAdjust="spacing" textLength="28.4912" x="384.0897" y="542.6653">User</text><text fill="#2E2E2E" font-family="'Segoe Print'" font-size="12.5" lengthAdjust="spacing" textLength="62.6892" x="342.2531" y="557.2161">messages</text></g><!--link BotLambda to DDB--><g class="link" data-entity-1="ent0010" data-entity-2="ent0008" data-link-type="dependency" data-source-line="43" id="lnk18"><path d="M192.0313,477.4271 L192.1126,477.4804 L190.4358,479.5114 L189.236,481.855 L187.8809,484.0968 L186.0149,486.0038 L184.8561,488.3743 L184.8248,488.3565 L183.3357,490.6504 L182.0042,493.034 L180.7824,495.4798 L179.1828,497.711 L178.1123,500.2428 L178.3448,500.3507 L176.6907,502.6135 L175.7155,505.1912 L174.8231,507.8073 L173.4488,510.1999 L172.328,512.71 L172.3579,512.7201 L171.4546,515.2539 L170.6876,517.8337 L169.8549,520.3913 L169.1475,522.9911 L168.0313,525.4531 L168.337,525.5081 L167.8845,528.048 L167.2348,530.5525 L166.8738,533.1088 L166.5263,535.6676 L165.7501,538.1493 L165.4163,538.1422 L166.1167,540.6213 L165.7179,543.077 L166.1547,545.5505 L165.7311,548.0057 L166.0127,550.4759 L165.9822,550.4672 L167.0096,552.8973 L167.3247,555.1234 L168.0602,557.4699 L168.8309,559.8265 L169.347,562.1101 L169.5084,562.2155 L170.7324,564.2329 L172.2321,566.4304 L173.2857,568.3366 L175.0046,570.6773 L176.2813,572.7292 L176.3803,572.9628 L179.075,574.0694 L181.8188,575.2919 L184.3341,575.9755 L187.0169,577.0542 L189.8481,578.4829 L189.8302,578.1958 L193.962,578.7125 L198.0735,578.9057 L202.2144,579.5682 L206.3052,579.4294 L210.4258,579.7669 L210.4247,579.6081 L214.7214,579.8423 L219.0133,579.3976 L223.3086,579.4357 L227.6072,579.9461 L231.8999,579.6154 L231.9178,579.8163 L235.1813,580.2435 L238.3892,580.0458 L241.6668,580.6309 L244.9292,581.0453 L248.1563,581.0625 L248.094,580.8528 L251.426,581.9937 L254.7375,583.0659 L258.0891,584.2729 L261.285,584.9555 L264.5679,585.9311 L264.6349,586.1345 L267.7114,586.7486 L270.9172,587.7554 L274.3118,589.3357 L277.3588,589.86 L280.6862,591.2363 L280.766,591.458 L283.8861,592.4666 L286.9791,593.4001 L290.1332,594.5029 L293.428,595.9971 L296.5236,596.9375 L296.4734,596.8083 L299.7367,598.4041 L302.6584,599.1215 L305.9687,600.8377 L309.0601,601.9915 L312.0926,602.9938 L312.1362,603.0985 L315.1637,604.2881 L318.3471,605.8527 L321.3897,607.0785 L324.3733,608.1627 L327.4058,609.3645 L327.4559,609.4781 L330.3955,610.6383 L333.5676,612.3258 L336.4767,613.4168 L339.4939,614.7532 L342.4757,616.009 L342.3572,615.7535 L345.3646,617.2143 L348.5146,618.983 L351.4627,620.316 L354.3385,621.493 L357.3147,622.8865 L357.2497,622.7522 L360.1947,624.2092 L363.0246,625.4284 L366.1706,627.3012 L369.1602,628.8506 L371.9353,629.9563" fill="none" style="stroke:#333333;stroke-width:3.125;"/><polygon fill="#333333" points="377.5417,632.7188,377.5977,632.7655,376.1176,631.0504,374.9661,629.6092,373.7075,628.0788,372.097,626.2552,370.9737,624.8375,370.9482,624.8288,371.2127,625.9057,371.606,627.0263,372.0889,628.1774,372.2632,629.2236,372.8697,630.4167,372.9315,630.5987,371.6834,630.5887,370.6159,631.1101,369.5704,631.6963,368.3967,631.9053,367.2905,632.3127,367.2914,632.3363,369.3403,632.3828,371.3934,632.537,373.4445,632.6393,375.4995,632.8407,377.5417,632.7188" style="stroke:#333333;stroke-width:3.125;"/><text fill="#2E2E2E" font-family="'Segoe Print'" font-size="12.5" lengthAdjust="spacing" textLength="33.5632" x="182.5313" y="542.6653">Write</text><text fill="#2E2E2E" font-family="'Segoe Print'" font-size="12.5" lengthAdjust="spacing" textLength="3.9734" x="216.0945" y="542.6653">&#160;</text><text fill="#2E2E2E" font-family="'Segoe Print'" font-size="12.5" lengthAdjust="spacing" textLength="61.2976" x="220.0679" y="542.6653">Messages</text><text fill="#2E2E2E" font-family="'Segoe Print'" font-size="12.5" lengthAdjust="spacing" textLength="56.4148" x="203.741" y="557.2161">(role=AI)</text></g><!--link DDB to AppLambda--><g class="link" data-entity-1="ent0008" data-entity-2="ent0011" data-link-type="dependency" data-source-line="40" id="lnk17"><path d="M455.8542,632.8229 L455.9488,632.8455 L454.4062,627.493 L453.4185,622.2729 L452.2501,617.0096 L450.4875,611.6046 L449.5474,606.3958 L449.5124,606.3872 L447.9137,600.5317 L446.491,594.7198 L445.1907,588.9382 L443.4686,583.0521 L442.3372,577.3125 L442.5853,577.377 L440.4859,571.2083 L439.1107,565.228 L437.8238,559.2707 L436.0229,553.1796 L434.4924,547.1589 L434.5228,547.1673 L432.8359,541.2273 L431.2876,535.3257 L429.6724,529.4056 L428.1848,523.5208 L426.2813,517.5208 L426.579,517.6096 L425.5338,514.0941 L424.2966,510.5214 L423.3405,507.0324 L422.3975,503.5474 L421.0372,499.9379 L420.7197,499.8346 L420.2386,496.6638 L418.7121,493.1529 L417.9804,489.9006 L416.4302,486.3819 L415.5509,483.0815" fill="none" style="stroke:#333333;stroke-width:3.125;"/><polygon fill="#333333" points="413.5625,477.1563,413.6352,477.1631,413.2258,479.1854,413.2423,481.248,413.1201,483.2974,412.5418,485.3037,412.5949,487.3697,412.5707,487.3577,412.9872,486.2486,413.5255,485.2001,414.1485,484.1937,414.4796,483.0422,415.2195,482.094,415.3051,482.2661,416.1772,482.423,417.2992,483.0823,418.4517,483.803,419.4268,484.167,420.4953,484.7186,420.5127,484.7346,419.1005,483.1986,417.7678,481.7355,416.3968,480.2373,415.099,478.8061,413.5625,477.1563" style="stroke:#333333;stroke-width:3.125;"/><text fill="#2E2E2E" font-family="'Segoe Print'" font-size="12.5" lengthAdjust="spacing" textLength="45.5017" x="447.1146" y="542.6653">Stream</text><text fill="#2E2E2E" font-family="'Segoe Print'" font-size="12.5" lengthAdjust="spacing" textLength="3.9734" x="492.6163" y="542.6653">&#160;</text><text fill="#2E2E2E" font-family="'Segoe Print'" font-size="12.5" lengthAdjust="spacing" textLength="54.7852" x="496.5897" y="542.6653">Message</text><text fill="#2E2E2E" font-family="'Segoe Print'" font-size="12.5" lengthAdjust="spacing" textLength="42.3218" x="478.0838" y="557.2161">Events</text></g><!--link BotLambda to OpenAI--><g class="link" data-entity-1="ent0010" data-entity-2="ent0012" data-link-type="dependency" data-source-line="44" id="lnk19"><path d="M173.0729,416.3958 L173.1376,416.4685 L170.1202,413.7387 L167.482,411.435 L164.7203,408.9926 L161.5526,406.0938 L158.9469,403.8267 L158.9208,403.802 L156.0926,400.8193 L153.3963,397.9611 L150.7918,395.1895 L147.8712,392.1196 L145.3932,389.4674 L145.5985,389.621 L142.773,386.1017 L140.5469,383.0306 L138.3938,380.0143 L135.8153,376.6797 L133.4606,373.5125 L133.4885,373.5274 L131.595,370.0343 L129.8285,366.6089 L128.0007,363.1509 L126.2897,359.7552 L124.1979,356.1563 L124.4891,356.2646 L123.6647,354.0407 L122.6525,351.747 L121.9153,349.5555 L121.1909,347.3688 L120.0583,345.0303 L119.7294,344.9728 L120.0378,343.1954 L119.2633,341.2289 L119.3121,339.4062 L118.513,337.4354 L118.4089,335.5859 L118.3774,335.5817 L118.9982,333.7683 L118.8845,331.8568 L119.2042,330.0031 L119.5603,328.1544 L119.654,326.2705 L119.8314,326.3456 L120.5611,324.122 L121.594,322.0266 L122.1363,319.7237 L123.4104,317.7304 L124.1979,315.5313 L124.4121,315.6675 L126.0474,313.0075 L127.789,310.4151 L129.0366,307.5085 L130.6464,304.8323 L132.5769,302.3601 L132.3637,302.1669 L134.5166,300.1789 L136.4293,297.9731 L138.6904,296.0831 L140.3566,293.654 L142.3764,291.5453 L142.2769,291.4215 L144.7024,289.8128 L146.7029,287.6748 L149.0056,285.9132 L151.6041,284.5199 L153.6758,282.4708 L153.7818,282.6424 L156.4303,281.17 L158.7492,279.1638 L161.4809,277.8263 L164.1226,276.343 L166.5549,274.5204" fill="none" style="stroke:#333333;stroke-width:3.125;"/><polygon fill="#333333" points="172.0208,271.4896,172.0273,271.5623,169.9643,271.5267,167.9389,271.9173,165.9013,272.1691,163.8235,271.9646,161.8014,272.3917,161.7939,272.3658,162.8934,272.5741,164.0305,272.9131,165.1935,273.3431,166.2668,273.4598,167.4658,274.0152,167.6506,274.0682,166.9308,275.0878,166.7504,276.2621,166.6359,277.4552,166.1384,278.5386,165.8424,279.6797,165.8613,279.694,167.0692,278.035,168.3632,276.441,169.6157,274.8156,170.9475,273.2501,172.0208,271.4896" style="stroke:#333333;stroke-width:3.125;"/><text fill="#2E2E2E" font-family="'Segoe Print'" font-size="12.5" lengthAdjust="spacing" textLength="58.3801" x="130.4479" y="340.6757">Generate</text><text fill="#2E2E2E" font-family="'Segoe Print'" font-size="12.5" lengthAdjust="spacing" textLength="3.9734" x="188.828" y="340.6757">&#160;</text><text fill="#2E2E2E" font-family="'Segoe Print'" font-size="12.5" lengthAdjust="spacing" textLength="60.5957" x="192.8014" y="340.6757">Response</text></g><!--link OpenAI to BotLambda--><g class="link" data-entity-1="ent0012" data-entity-2="ent0010" data-link-type="dependency" data-source-line="45" id="lnk20"><path d="M243.1771,280.5833 L243.2563,280.6399 L245.379,283.7753 L247.9661,287.2421 L250.4019,290.601 L252.3406,293.605 L254.9674,297.1003 L254.935,297.0847 L256.5521,300.7013 L258.3328,304.3961 L260.2273,308.1452 L261.7297,311.707 L263.7813,315.5313 L264.0302,315.5921 L264.1357,318.0716 L264.9681,320.7288 L265.8892,323.4077 L266.2943,325.9604 L266.9707,328.5795 L267.0022,328.5817 L267.134,331.1624 L267.4093,333.753 L267.6154,336.3389 L267.9535,338.9338 L267.8611,341.4991 L268.1706,341.5259 L267.954,344.0662 L267.5378,346.589 L267.4138,349.1373 L267.3035,351.6867 L266.7593,354.1985 L266.4336,354.1252 L266.5084,356.745 L265.5107,359.1234 L265.3284,361.6853 L264.3063,364.0583 L263.9726,366.5862 L263.9426,366.5758 L263.4639,369.0957 L262.2854,371.3725 L261.5198,373.7928 L260.7889,376.2251 L259.8079,378.5705 L259.9832,378.6504 L258.7591,380.8676 L257.8347,383.2214 L256.4254,385.3543 L255.7393,387.8167 L254.5723,390.06 L254.7947,390.1823 L253.5528,392.3398 L252.4213,394.558 L250.7768,396.4939 L249.5083,398.6368 L248.573,400.963 L248.3298,400.8094 L247.2588,402.9934 L245.9137,405.0044 L244.9661,407.2664 L243.3398,409.0998 L242.117,411.188" fill="none" style="stroke:#333333;stroke-width:3.125;"/><polygon fill="#333333" points="238.6458,416.3854,238.6848,416.4471,240.3033,415.1674,242.1504,414.2493,243.923,413.2135,245.4508,411.7904,247.3175,410.9033,247.3123,410.8769,246.1328,410.9883,244.9799,411.2331,243.8455,411.5706,242.6474,411.5886,241.5385,412.0542,241.727,412.0917,241.0937,410.8556,241.0108,409.7292,240.995,408.616,240.5886,407.4251,240.3876,406.2751,240.4109,406.2791,240.0283,408.2953,239.752,410.3298,239.4244,412.3554,239.1946,414.3979,238.6458,416.3854" style="stroke:#333333;stroke-width:3.125;"/><text fill="#2E2E2E" font-family="'Segoe Print'" font-size="12.5" lengthAdjust="spacing" textLength="71.5942" x="274.1979" y="340.6757">Completion</text></g><!--link AppLambda to Backend--><g class="link" data-entity-1="ent0011" data-entity-2="ent0006" data-link-type="dependency" data-source-line="48" id="lnk21"><path d="M479.9688,446.75 L479.9688,447.0419 L490.1432,446.1746 L500.3177,447.0185 L510.4922,447.3051 L520.6667,445.7592 L530.8411,446.6421 L541.0156,446.1576 L551.1901,446.2174 L561.3646,446.6553 L571.5391,445.7898 L581.7135,447.5189 L591.888,445.8746 L602.0625,446.4753 L612.237,447.3499 L622.4115,446.6309 L632.5859,446.8448 L642.7604,446.75" fill="none" style="stroke:#333333;stroke-width:3.125;"/><polygon fill="#333333" points="649.0104,446.75,649.0401,446.8167,647.077,445.7852,645.2877,445.1447,643.4418,444.3768,641.4098,443.1903,639.6354,442.5833,639.6163,442.5643,640.364,443.312,641.2079,444.1558,642.1187,445.0666,642.799,445.7469,643.8021,446.75,643.938,446.8859,642.814,447.4286,642.0869,448.3681,641.4081,449.3561,640.4477,450.0623,639.6354,450.9167,639.645,450.9383,641.5059,450.0732,643.4106,449.3066,645.2941,448.4925,647.218,447.7692,649.0104,446.75" style="stroke:#333333;stroke-width:3.125;"/><text fill="#2E2E2E" font-family="'Segoe Print'" font-size="12.5" lengthAdjust="spacing" textLength="32.1533" x="523.3615" y="420.8528">REST</text><text fill="#2E2E2E" font-family="'Segoe Print'" font-size="12.5" lengthAdjust="spacing" textLength="3.9734" x="555.5148" y="420.8528">&#160;</text><text fill="#2E2E2E" font-family="'Segoe Print'" font-size="12.5" lengthAdjust="spacing" textLength="19.7754" x="559.4882" y="420.8528">API</text><text fill="#2E2E2E" font-family="'Segoe Print'" font-size="12.5" lengthAdjust="spacing" textLength="3.9734" x="579.2636" y="420.8528">&#160;</text><text fill="#2E2E2E" font-family="'Segoe Print'" font-size="12.5" lengthAdjust="spacing" textLength="23.3337" x="583.237" y="420.8528">Call</text><text fill="#2E2E2E" font-family="'Segoe Print'" font-size="12.5" lengthAdjust="spacing" textLength="62.9028" x="504.1354" y="435.4036">Broadcast</text><text fill="#2E2E2E" font-family="'Segoe Print'" font-size="12.5" lengthAdjust="spacing" textLength="3.9734" x="567.0382" y="435.4036">&#160;</text><text fill="#2E2E2E" font-family="'Segoe Print'" font-size="12.5" lengthAdjust="spacing" textLength="54.7852" x="571.0116" y="435.4036">Message</text></g><!--link BotLambda to GMN27--><g class="link" data-entity-1="ent0010" data-entity-2="ent0028" data-link-type="association" data-source-line="64" id="lnk29"><path d="M177.8542,477.1771 L177.9227,477.2461 L175.9207,478.8276 L174.3208,480.8138 L172.5899,482.6682 L170.4284,484.0893 L168.863,486.1102 L168.8359,486.0865 L166.9972,487.9363 L165.2948,489.9058 L163.6871,491.9584 L161.7529,493.7244 L160.276,495.8919 L160.4824,496.044 L158.4925,497.8209 L157.1051,500.0417 L155.7911,502.3167 L154.0495,504.2766 L152.5329,506.4022 L152.5602,506.4181 L151.2281,508.6185 L150.0204,510.8912 L148.7526,513.129 L147.5994,515.4333 L146.0729,517.5208 L146.3576,517.6452 L145.0248,520.7062 L143.5084,523.6871 L142.2608,526.7853 L141.0258,529.8891 L139.3916,532.8185 L139.075,532.7125 L138.6145,536.1294 L137.1116,539.1973 L136.4012,542.5305 L134.8745,545.5906 L134.0169,548.8745 L133.9862,548.8667 L133.5095,552.2563 L132.3147,555.4629 L131.5437,558.7776 L130.8082,562.1012 L129.8161,565.3595 L130.0054,565.3956 L129.1823,568.6761 L128.6828,572.0182 L127.6599,575.2606 L127.4176,578.6518 L126.6563,581.944 L126.9077,581.9786 L126.4098,585.243 L126.0368,588.5245 L125.0837,591.7262 L124.5558,594.9864 L124.4046,598.2985 L124.1182,598.2718 L124.0822,601.455 L123.7235,604.6081 L123.833,607.8049 L123.1431,610.927 L122.9284,614.0936 L122.7698,614.0847 L122.8672,617.0807 L122.2867,620.0388 L122.1882,623.0239 L122.5614,626.0353 L122.0947,628.9997 L122.2964,629.0045 L122.3699,631.7453 L121.8162,634.4713 L122.0481,637.2159 L122.1089,639.9564 L121.7708,642.6875" fill="none" style="stroke:#333333;stroke-width:3.125;stroke-dasharray:7.2917,7.2917;"/></g><!--link Frontend to GMN30--><g class="link" data-entity-1="ent0004" data-entity-2="ent0031" data-link-type="association" data-source-line="71" id="lnk32"><path d="M943.625,279.8333 L943.6777,279.9151 L945.8397,281.1674 L948.3108,282.899 L950.6812,284.4746 L952.7206,285.5368 L955.2183,287.3096 L955.1965,287.2809 L957.3265,288.8392 L959.5659,290.5421 L961.8815,292.3455 L963.9348,293.8026 L966.3555,295.7448 L966.5285,295.9339 L968.2145,297.4103 L970.4056,299.4388 L972.6583,301.5347 L974.5525,303.2387 L976.6353,305.1488 L976.6591,305.1695 L978.4283,307.2156 L980.306,309.356 L982.1314,311.4509 L984.0567,313.6326 L985.6563,315.5313 L985.9134,315.7055 L987.3222,317.7823 L988.565,319.7466 L990.0507,321.8755 L991.5478,324.0121 L992.6843,325.9044 L992.391,325.7447 L994.1724,328.2805 L994.9883,330.2904 L996.5381,332.7002 L997.3321,334.6982 L998.7456,337.0337 L998.7166,337.0208 L1000.0927,339.5037 L1000.7914,341.6863 L1001.8898,344.0461 L1003.0218,346.4208 L1003.9117,348.6882 L1004.0928,348.754 L1004.7784,351.0773 L1005.7735,353.513 L1006.2679,355.7668 L1007.5092,358.292 L1008.2539,360.6367 L1008.4971,360.7094 L1009.169,363.098 L1009.9617,365.5226 L1010.1935,367.7796 L1010.8364,370.1595 L1011.8437,372.6483 L1011.5643,372.5796 L1012.399,375.0104 L1012.9188,377.3639 L1013.8953,379.8296 L1014.0922,382.1037 L1014.7524,384.4917 L1014.5967,384.4604 L1015.3159,386.8014 L1015.3694,389.0086 L1015.8963,391.3109 L1016.8863,393.7063 L1017.0516,395.936 L1017.2507,395.9684 L1017.7394,398.1534 L1017.6089,400.2376 L1018.254,402.4481 L1018.7301,404.6311 L1018.8125,406.75" fill="none" style="stroke:#333333;stroke-width:3.125;stroke-dasharray:7.2917,7.2917;"/></g><!--SRC=[TLHjQoCt4Fw-ls9gIdjECVG2_NBGmjfEYccECzw4t86XZAMnLqGhRILjahsZ_xqZxOitbyPVlCphCy-ZcHz2IHM1Vw0WodPXcw2LeSm_A5EZmmg4hMfho8GYj9h0aGXeJdeQykImlbSob71v-Ul4Nk7pH_8UJrIehmJlVviwVOdIFYbpWYDgJzcqfRQDX6yPmD8wIMvbjNNmuphV_SMsQsj2RzdkDX_ptPU_Rwy-tsR_PXcAmEOxJyvdMOtYWLl3RAKLmuSRRCdDKjbn9fXTEov7HkxDk_o-WBogjJgsyncWXy4NIu_LyktcZLAxg-8MVe5xEXHMC9-mv1nEJxNwxnUbhXvZtazGCEfec9IL6F20deFMhS7AhfTxqtFf6Uf64hTbRABbZaN0q7WeMYFcUvElDckuTMWyqw6iyQd_UhryqNl5ZgOYzyOiDrWT9ExDgiHmi066y6uM6ph_spbvNR_COKEVmoWwWMUVQZBv9hcxpopx6HRyInA2Ol9TDqEoPabO_lnZL0O-GEm6TvjiD4L_ppQxeoXxisqEMlaIUWgpmHzZcHcEst9fvSCGuKSeIQI5T8h_eNPMS41yjUy6OPX-HrZvUGSobaiG1fAuU1UHfjgRQkWmH8xKd2Dx57kJkf_1378SjNtgsftRd6UvToeGJ9wBivf-ppVpxw8xqZdXJpBCDEVioBEQl8szw_j1LgosfgZ826bDcgbnxGJJUQ3NMa3SdnLglJTBPr4AF9F-GfQ9nEUDsZQ-v7amB3Hnui8QGVCHoevGGeryXpfgNecS0YQybAouPUYYSPuFHuqdPJ1EnpKDhnSuTIe3s6DQdr5mrx6a3agheCX_o1PGsCO9Yg71DQ7C-eS31rxCHuN38ucHWISxQUuQQ_WGezWde-_gcT-xRjDSS4778r_R2zwoM25CLZgBSqM4FKv-4y5MiVjvDqTXF5LeWX89Ppwb3kYPH9FaZEm5nyD0YKPgad1eeQ-qWEczSVHFenp9jp6CTxE_lF_7rvfamwTMODzzbIHOn9id9qAmvyOArD1l3GWK9Osj_mC0]--></g></svg>